<svg xmlns="http://www.w3.org/2000/svg" xmlns:xlink="http://www.w3.org/1999/xlink" width="500" zoomAndPan="magnify" viewBox="0 0 375 374.999991" height="500" preserveAspectRatio="xMidYMid meet" version="1.0"><path fill="#ffffff" d="M 329.765625 218.992188 C 329.765625 191.085938 308.273438 168.214844 280.933594 165.980469 C 275.925781 117.550781 234.984375 79.78125 185.210938 79.78125 C 135.644531 79.78125 94.84375 117.25 89.566406 165.394531 C 61.902344 167.460938 40.097656 190.53125 40.097656 218.714844 C 40.097656 248.253906 64.050781 272.199219 93.601562 272.199219 L 281.453125 272.199219 L 281.453125 271.964844 C 308.546875 269.484375 329.765625 246.722656 329.765625 218.992188 " fill-opacity="1" fill-rule="nonzero"/><path fill="#ffffff" d="M 65.292969 96.09375 C 67.660156 98.550781 70.03125 100.4375 72.007812 101.820312 C 53.332031 124.722656 41.460938 153.347656 39.398438 184.605469 C 34.988281 191.078125 31.980469 198.40625 30.882812 206.234375 C 30.839844 206.347656 30.773438 206.457031 30.753906 206.585938 C 30.421875 202.550781 30.226562 198.492188 30.226562 194.367188 C 30.226562 157.121094 43.390625 122.898438 65.292969 96.09375 " fill-opacity="1" fill-rule="nonzero"/><path fill="#ffffff" d="M 341.558594 194.367188 C 341.558594 197.199219 341.449219 200.007812 341.296875 202.792969 C 339.367188 196.167969 336.335938 189.980469 332.410156 184.519531 C 327.320312 108.136719 263.574219 47.527344 185.894531 47.527344 C 164.519531 47.527344 144.222656 52.113281 125.898438 60.359375 L 116.289062 55.207031 C 137.246094 44.675781 160.878906 38.753906 185.894531 38.753906 C 271.714844 38.753906 341.558594 108.574219 341.558594 194.367188 " fill-opacity="1" fill-rule="nonzero"/><path fill="#ffffff" d="M 184.933594 299.71875 C 182.277344 299.71875 180.105469 297.570312 180.105469 294.894531 C 180.105469 292.238281 182.277344 290.066406 184.933594 290.066406 C 187.585938 290.066406 189.757812 292.238281 189.757812 294.894531 C 189.757812 297.570312 187.585938 299.71875 184.933594 299.71875 M 188.222656 285.789062 C 187.191406 285.394531 186.09375 285.199219 184.933594 285.199219 C 183.769531 285.199219 182.671875 285.394531 181.640625 285.789062 C 177.910156 287.128906 175.234375 290.703125 175.234375 294.894531 C 175.234375 300.246094 179.578125 304.609375 184.933594 304.609375 C 190.285156 304.609375 194.632812 300.246094 194.632812 294.894531 C 194.632812 290.703125 191.953125 287.128906 188.222656 285.789062 " fill-opacity="1" fill-rule="nonzero"/><path fill="#ffffff" d="M 209.433594 206.820312 C 206.769531 206.820312 204.601562 208.988281 204.601562 211.648438 C 204.601562 214.3125 206.769531 216.476562 209.433594 216.476562 C 212.097656 216.476562 214.261719 214.3125 214.261719 211.648438 C 214.261719 208.988281 212.097656 206.820312 209.433594 206.820312 M 209.433594 221.355469 C 204.078125 221.355469 199.726562 217 199.726562 211.648438 C 199.726562 206.300781 204.078125 201.949219 209.433594 201.949219 C 214.785156 201.949219 219.136719 206.300781 219.136719 211.648438 C 219.136719 217 214.785156 221.355469 209.433594 221.355469 " fill-opacity="1" fill-rule="nonzero"/><path fill="#ffffff" d="M 251.269531 176.796875 C 248.609375 176.796875 246.441406 178.964844 246.441406 181.625 C 246.441406 184.289062 248.609375 186.453125 251.269531 186.453125 C 253.933594 186.453125 256.101562 184.289062 256.101562 181.625 C 256.101562 178.964844 253.933594 176.796875 251.269531 176.796875 M 251.269531 191.332031 C 245.917969 191.332031 241.566406 186.976562 241.566406 181.625 C 241.566406 176.277344 245.917969 171.921875 251.269531 171.921875 C 256.625 171.921875 260.976562 176.277344 260.976562 181.625 C 260.976562 186.976562 256.625 191.332031 251.269531 191.332031 " fill-opacity="1" fill-rule="nonzero"/><path fill="#ffffff" d="M 220.128906 326 C 217.472656 326 215.300781 323.828125 215.300781 321.152344 C 215.300781 318.496094 217.472656 316.324219 220.128906 316.324219 C 222.785156 316.324219 224.957031 318.496094 224.957031 321.152344 C 224.957031 323.828125 222.785156 326 220.128906 326 M 223.421875 312.046875 C 222.390625 311.652344 221.292969 311.453125 220.128906 311.453125 C 218.964844 311.453125 217.867188 311.652344 216.835938 312.046875 C 213.105469 313.386719 210.429688 316.960938 210.429688 321.152344 C 210.429688 326.503906 214.773438 330.867188 220.128906 330.867188 C 225.484375 330.867188 229.828125 326.503906 229.828125 321.152344 C 229.828125 316.960938 227.152344 313.386719 223.421875 312.046875 " fill-opacity="1" fill-rule="nonzero"/><path fill="#ffffff" d="M 278.695312 210.417969 C 276.03125 210.417969 273.867188 212.585938 273.867188 215.246094 C 273.867188 217.910156 276.03125 220.074219 278.695312 220.074219 C 281.359375 220.074219 283.527344 217.910156 283.527344 215.246094 C 283.527344 212.585938 281.359375 210.417969 278.695312 210.417969 M 278.695312 224.949219 C 273.34375 224.949219 268.992188 220.59375 268.992188 215.246094 C 268.992188 209.894531 273.34375 205.542969 278.695312 205.542969 C 284.046875 205.542969 288.402344 209.894531 288.402344 215.246094 C 288.402344 220.59375 284.046875 224.949219 278.695312 224.949219 " fill-opacity="1" fill-rule="nonzero"/><path fill="#ffffff" d="M 51.324219 30.730469 L 106.175781 60.339844 L 148.234375 83.738281 L 184.96875 103.84375 L 193.214844 95.910156 L 212.597656 77.15625 L 224.347656 72.039062 L 238.882812 78.253906 L 249.535156 91.113281 L 254.917969 95.910156 L 248.800781 99.457031 L 240.757812 108.964844 L 236 122.855469 L 234.007812 139.308594 L 229.179688 159.78125 L 220.847656 174.175781 L 210.148438 183.542969 L 202.265625 188.382812 L 179.867188 196.15625 L 167.523438 198.074219 L 159.476562 212.054688 L 147.503906 230.609375 L 138.085938 240.753906 L 126.382812 245.140625 L 114.953125 242.398438 L 108.1875 239.203125 L 99.230469 239.839844 L 87.621094 234.082031 L 84.417969 223.570312 L 75.09375 219.09375 L 68.691406 210.957031 L 67.507812 201.089844 L 63.117188 193.136719 L 64.03125 189.480469 L 72.808594 183.359375 L 91.367188 181.714844 L 113.21875 178.242188 L 129.398438 169.011719 L 144.574219 159.503906 L 149.148438 152.742188 L 139.273438 150.183594 L 127.023438 141.316406 L 119.160156 135.195312 L 108.738281 130.257812 L 102.246094 119.382812 L 93.101562 114.539062 L 85.605469 107.503906 L 80.667969 95.070312 L 73.355469 88.035156 L 64.761719 77.890625 L 62.386719 63.265625 L 60.375 55.40625 L 52.875 45.902344 L 50.132812 35.484375 Z M 51.324219 30.730469 " fill-opacity="1" fill-rule="nonzero"/><path fill="#223744" d="M 250.925781 95.628906 C 247.925781 97.507812 243.054688 101.316406 240.816406 104.472656 C 238.554688 107.671875 236.859375 111.308594 235.570312 114.886719 C 234.148438 118.832031 233.457031 122.679688 232.949219 126.953125 C 232.453125 131.097656 232.398438 134.898438 231.945312 139.023438 C 230.585938 151.351562 226.503906 163.867188 218.367188 173.371094 C 214.71875 177.628906 209.238281 182.300781 204.636719 185.503906 C 197.390625 190.53125 188.457031 192.6875 179.976562 194.277344 C 177.890625 194.667969 175.785156 194.957031 173.667969 195.113281 C 172.460938 195.199219 171.253906 195.292969 170.035156 195.429688 C 168.71875 195.578125 167 195.964844 165.832031 196.621094 C 164.46875 197.382812 163.921875 198.367188 163.183594 199.707031 C 162.304688 201.300781 161.417969 202.894531 160.523438 204.480469 C 158.878906 207.402344 157.875 209.441406 156.1875 212.339844 C 153.015625 217.785156 150.308594 222.28125 146.699219 227.453125 C 143.925781 231.433594 139.636719 234.882812 135.898438 238.023438 C 134.566406 239.140625 133.078125 240.066406 131.441406 240.65625 C 128.984375 241.539062 126.34375 242.070312 123.726562 241.9375 C 121.210938 241.808594 118.945312 240.71875 116.957031 239.226562 C 115.5625 238.179688 113.988281 237.40625 112.285156 237.054688 C 110.792969 236.742188 109.242188 236.5625 107.71875 236.621094 C 105.277344 236.691406 102.875 237.070312 100.425781 236.933594 C 98.003906 236.734375 95.621094 235.90625 93.878906 234.15625 C 93.84375 234.121094 93.808594 234.085938 93.773438 234.050781 C 92 232.207031 91.414062 229.777344 90.558594 227.433594 C 89.910156 225.667969 88.980469 224.015625 87.855469 222.511719 C 86.988281 221.355469 86.097656 220.195312 84.996094 219.25 C 83.785156 218.214844 82.382812 217.667969 80.828125 217.367188 C 79.597656 217.128906 78.460938 216.652344 77.359375 216.050781 C 74.777344 214.636719 72.832031 212.351562 72.054688 209.492188 C 71.652344 208.011719 71.828125 206.515625 71.761719 205.011719 C 71.613281 201.476562 70.464844 197.972656 68.761719 194.890625 C 68.511719 194.441406 68.246094 193.992188 68.113281 193.496094 C 67.625 191.703125 69.574219 189.71875 70.886719 188.773438 C 72.441406 187.65625 74.351562 186.433594 76.214844 186.066406 C 78.914062 185.539062 81.507812 185.648438 84.238281 185.449219 C 86.035156 185.324219 88.71875 185.191406 90.515625 185.039062 C 95.335938 184.621094 99.800781 183.792969 104.605469 183.1875 C 109.640625 182.550781 114.03125 180.796875 118.785156 178.8125 C 121.589844 177.648438 124.296875 176.234375 126.855469 174.605469 C 135.304688 169.230469 139.03125 166.917969 145.542969 161.183594 C 146.964844 159.929688 149.3125 158.578125 150.78125 157.269531 C 151.394531 156.71875 152.597656 156.410156 153.402344 156.59375 C 156.601562 157.328125 159.890625 157.34375 163.144531 157.089844 C 165.714844 156.886719 168.300781 156.664062 170.761719 155.84375 C 174.308594 154.660156 177.417969 152.464844 179.902344 149.6875 C 181.84375 147.515625 183.421875 145.019531 184.640625 142.378906 C 185.152344 141.277344 184.613281 140.789062 183.875 141.65625 C 180.773438 145.304688 176.957031 148.355469 172.515625 150.207031 C 170.46875 151.058594 168.261719 151.46875 166.046875 151.589844 C 163.523438 151.726562 160.886719 151.710938 158.378906 151.316406 C 155.109375 150.804688 152.019531 149.558594 148.792969 148.867188 C 145.578125 148.183594 142.289062 147.835938 139.15625 146.800781 C 137.683594 146.316406 136.257812 145.683594 134.953125 144.835938 C 133.183594 143.6875 132.414062 141.886719 131.015625 140.398438 C 129.425781 138.703125 127.515625 137.320312 125.554688 136.09375 C 123.371094 134.730469 121.003906 133.976562 118.6875 132.917969 C 114.238281 130.882812 109.996094 128.050781 107.300781 123.867188 C 106.746094 123.011719 106.265625 122.105469 105.875 121.160156 C 105.144531 119.386719 103.882812 117.539062 102.175781 116.601562 C 99.070312 114.898438 95.9375 113.644531 93.101562 111.453125 C 90.378906 109.351562 87.710938 106.746094 86.269531 103.574219 C 85.292969 101.429688 84.867188 99.035156 84.355469 96.75 C 83.863281 94.71875 82.792969 92.828125 81.289062 91.375 C 80.515625 90.632812 79.601562 90.074219 78.765625 89.40625 C 77.761719 88.601562 76.8125 87.726562 75.871094 86.851562 C 73.320312 84.476562 71.003906 81.824219 69.238281 78.8125 C 68.703125 77.894531 68.21875 76.949219 67.792969 75.976562 C 67.457031 75.210938 67.15625 74.421875 66.910156 73.617188 C 66.566406 72.488281 66.253906 71.320312 66.015625 70.144531 C 65.585938 68.074219 65.574219 65.953125 65.492188 63.847656 C 65.414062 61.859375 65.378906 59.609375 64.578125 57.757812 C 63.929688 56.261719 62.6875 55.113281 61.738281 53.820312 C 60.640625 52.324219 59.609375 50.785156 58.660156 49.191406 C 57.207031 46.75 55.941406 44.191406 54.960938 41.523438 C 54.429688 40.074219 53.976562 38.589844 53.664062 37.074219 C 53.570312 36.609375 54.046875 36.394531 54.476562 36.59375 C 59.113281 38.757812 125.152344 74.667969 125.152344 74.667969 C 125.152344 74.667969 160.988281 93.964844 181.46875 105.476562 C 196.347656 113.84375 202.703125 122.519531 205.066406 126.636719 C 205.316406 127.074219 206 126.8125 205.902344 126.316406 C 203.894531 116.148438 195.414062 107.453125 193.140625 105.476562 C 192.859375 105.230469 190.867188 103.664062 191.085938 103.359375 C 196.117188 96.195312 198.878906 92.851562 205.074219 86.703125 C 207.445312 84.351562 215.238281 78.691406 218.34375 77.445312 C 224.742188 74.871094 233.199219 76.109375 238.914062 80.222656 C 242.425781 82.75 244.671875 87.0625 247.269531 90.386719 C 248.238281 91.621094 250.015625 93.367188 251.089844 94.558594 C 251.390625 94.886719 251.304688 95.394531 250.925781 95.628906 M 258.183594 94.941406 C 258.183594 94.941406 255.167969 92.472656 254.023438 91.011719 C 252.339844 88.855469 250.714844 86.652344 249.109375 84.441406 C 246.382812 80.699219 243.441406 76.976562 239.417969 74.558594 C 235.425781 72.15625 230.761719 70.820312 226.105469 70.695312 C 222.660156 70.605469 219.191406 71.1875 216.015625 72.539062 C 209.453125 75.335938 203.84375 80.242188 198.886719 85.265625 C 194.828125 89.375 191.082031 93.808594 187.632812 98.445312 C 187.574219 98.523438 186.832031 99.523438 186.355469 100.183594 C 186.132812 100.496094 185.703125 100.554688 185.394531 100.328125 C 182.457031 98.1875 179.054688 96.554688 175.878906 94.851562 C 170.832031 92.15625 165.730469 89.558594 160.617188 86.992188 C 154.648438 83.996094 148.617188 81.132812 142.710938 78.007812 C 136.085938 74.5 129.507812 70.890625 122.910156 67.335938 C 122.800781 67.277344 122.6875 67.210938 122.574219 67.15625 C 120.152344 65.875 117.742188 64.601562 115.324219 63.320312 C 113.457031 62.058594 111.332031 61.097656 109.339844 60.015625 C 107.191406 58.867188 105.050781 57.714844 102.910156 56.5625 C 101.703125 55.910156 100.496094 55.261719 99.292969 54.613281 L 91.757812 50.554688 C 89.042969 49.199219 86.398438 47.667969 83.726562 46.226562 C 82.480469 45.605469 81.273438 44.898438 80.050781 44.242188 C 79.425781 43.902344 78.796875 43.566406 78.171875 43.230469 C 78 43.132812 76.523438 42.457031 76.523438 42.347656 C 74.171875 41.179688 71.957031 39.554688 69.722656 38.15625 C 67.3125 36.648438 64.898438 35.140625 62.484375 33.632812 C 58.761719 31.304688 55.039062 28.910156 51.109375 26.941406 C 49.703125 26.230469 45.886719 24.453125 46.074219 27.574219 C 46.257812 32.398438 46.863281 37.066406 48.351562 41.679688 C 49.566406 45.441406 51.234375 49.054688 53.261719 52.449219 C 54.714844 54.878906 56.347656 57.207031 58.171875 59.371094 C 58.234375 59.441406 58.296875 59.515625 58.359375 59.589844 C 59.417969 60.820312 60.3125 63.148438 60.375 64.769531 C 61.160156 85.074219 72.296875 92.917969 76.90625 95.621094 C 77.742188 96.113281 78.335938 96.941406 78.484375 97.902344 C 80.714844 112.425781 90.65625 118.25 95.957031 120.355469 C 97.929688 121.136719 99.460938 122.679688 100.339844 124.613281 C 100.929688 125.902344 101.671875 127.136719 102.398438 128.300781 C 104.589844 131.808594 108.015625 134.265625 111.738281 135.957031 C 114.191406 137.066406 116.863281 137.90625 119.273438 139.195312 C 121.988281 140.652344 123.730469 142.746094 125.617188 145.113281 C 127.886719 147.964844 130.78125 150.285156 134.039062 151.914062 C 137.289062 153.542969 140.675781 153.929688 144.148438 154.507812 C 144.761719 154.605469 144.960938 155.390625 144.464844 155.769531 C 139.398438 159.648438 122.621094 172.039062 110.648438 175.882812 C 105.871094 177.414062 100.894531 178.304688 95.910156 178.839844 C 92.121094 179.25 88.304688 179.445312 84.492188 179.472656 C 83.644531 179.476562 82.796875 179.4375 81.949219 179.414062 C 78.167969 179.308594 74.6875 179.953125 71.242188 181.503906 C 68.738281 182.636719 66.382812 184.089844 64.203125 185.757812 C 57.703125 190.726562 62.730469 197.367188 65.078125 199.835938 C 66.015625 200.816406 65.753906 201.964844 65.324219 203.089844 C 63.863281 206.882812 65.644531 211.953125 67.589844 215.316406 C 69.199219 218.097656 71.503906 220.414062 74.210938 222.132812 C 76.304688 223.457031 78.613281 224.441406 81.003906 225.074219 C 82.449219 225.464844 83.449219 226.722656 83.558594 228.214844 C 84.027344 234.734375 88.863281 238.636719 88.863281 238.636719 C 96.140625 244.972656 104.582031 243.878906 108.796875 242.808594 C 110.179688 242.445312 111.644531 242.796875 112.714844 243.753906 C 115.234375 245.984375 121.113281 249.320312 132.40625 246.617188 C 146.625 243.234375 163.40625 210.878906 167.121094 203.386719 C 167.609375 202.402344 168.523438 201.710938 169.601562 201.503906 C 175.75 200.308594 182.792969 199.097656 188.65625 197.53125 C 195.015625 195.835938 199.28125 193.988281 205.109375 190.859375 C 210.902344 187.75 216.765625 183.300781 221.183594 178.398438 C 225.441406 173.679688 228.824219 168.199219 231.476562 162.433594 C 232.835938 159.484375 234 156.445312 234.976562 153.347656 C 238.050781 143.589844 237.300781 133.335938 238.945312 123.339844 C 239.253906 121.476562 239.667969 119.628906 240.226562 117.824219 C 241.277344 114.394531 242.699219 111.042969 244.65625 108.027344 C 245.789062 106.285156 247.15625 104.355469 248.882812 103.136719 C 248.882812 103.136719 252.640625 99.515625 257.269531 98.183594 C 261.246094 97.042969 258.183594 94.941406 258.183594 94.941406 " fill-opacity="1" fill-rule="nonzero"/><path fill="#223744" d="M 233.066406 91.503906 C 233.066406 94.152344 230.917969 96.300781 228.265625 96.300781 C 225.613281 96.300781 223.464844 94.152344 223.464844 91.503906 C 223.464844 88.851562 225.613281 86.703125 228.265625 86.703125 C 230.917969 86.703125 233.066406 88.851562 233.066406 91.503906 " fill-opacity="1" fill-rule="nonzero"/><path fill="#ffffff" d="M 148.964844 336.503906 C 113.359375 327.25 82.96875 304.933594 63.21875 275.007812 C 57.171875 272.492188 51.707031 268.921875 47.007812 264.523438 C 67.839844 305.570312 106.332031 336.214844 152.429688 346.355469 C 150.914062 343.253906 149.730469 339.957031 148.964844 336.503906 " fill-opacity="1" fill-rule="nonzero"/><path fill="#ffffff" d="M 188.21875 272.078125 L 188.222656 286.492188 C 188.222656 288.3125 186.753906 289.78125 184.933594 289.78125 C 183.109375 289.78125 181.640625 288.3125 181.640625 286.492188 L 181.636719 272.078125 Z M 188.21875 272.078125 " fill-opacity="1" fill-rule="nonzero"/><path fill="#ffffff" d="M 223.417969 272.023438 L 223.421875 312.707031 C 223.421875 314.527344 221.949219 315.996094 220.128906 315.996094 C 218.308594 315.996094 216.835938 314.527344 216.835938 312.707031 L 216.832031 272.023438 Z M 223.417969 272.023438 " fill-opacity="1" fill-rule="nonzero"/><path fill="#ffffff" d="M 258.195312 272 L 258.203125 300.222656 C 258.203125 302.042969 256.730469 303.515625 254.910156 303.515625 C 253.089844 303.515625 251.617188 302.042969 251.617188 300.222656 L 251.613281 272 Z M 258.195312 272 " fill-opacity="1" fill-rule="nonzero"/><path fill="#ffffff" d="M 285.652344 271.398438 L 278.851562 285.261719 C 278.28125 286.425781 277.117188 287.105469 275.910156 287.105469 C 275.40625 287.105469 274.921875 286.996094 274.460938 286.777344 C 272.816406 285.964844 272.15625 283.992188 272.945312 282.367188 L 278.035156 271.96875 L 281.046875 271.957031 L 281.457031 271.957031 C 282.859375 271.824219 284.269531 271.664062 285.652344 271.398438 " fill-opacity="1" fill-rule="nonzero"/><path fill="#ffffff" d="M 160.527344 272.105469 L 160.53125 319.175781 C 160.53125 320.972656 159.0625 322.464844 157.238281 322.464844 C 155.417969 322.464844 153.949219 320.972656 153.949219 319.175781 L 153.945312 272.105469 Z M 160.527344 272.105469 " fill-opacity="1" fill-rule="nonzero"/><path fill="#ffffff" d="M 307.660156 291.132812 C 307.71875 291.0625 307.777344 290.984375 307.835938 290.914062 C 309.144531 289.265625 310.429688 287.605469 311.671875 285.902344 C 311.652344 285.902344 311.628906 285.902344 311.605469 285.902344 C 316.828125 278.753906 321.488281 271.164062 325.449219 263.164062 C 320.617188 267.824219 314.976562 271.671875 308.882812 274.472656 C 300.742188 286.917969 290.769531 298.0625 279.351562 307.511719 C 279.339844 307.515625 279.332031 307.523438 279.324219 307.53125 C 276.113281 310.1875 272.78125 312.710938 269.347656 315.089844 C 269.261719 315.152344 269.175781 315.210938 269.089844 315.269531 C 267.394531 316.441406 265.675781 317.578125 263.933594 318.675781 C 263.878906 318.710938 263.820312 318.746094 263.769531 318.777344 C 262.070312 319.84375 260.347656 320.875 258.609375 321.871094 C 258.507812 321.929688 258.40625 321.992188 258.304688 322.046875 C 256.589844 323.027344 254.847656 323.96875 253.085938 324.878906 C 252.832031 325.007812 252.582031 325.132812 252.328125 325.261719 C 250.601562 326.144531 248.859375 327 247.089844 327.8125 C 247.054688 327.832031 247.019531 327.84375 246.984375 327.863281 C 245.242188 328.664062 243.46875 329.421875 241.6875 330.160156 C 241.300781 330.320312 240.910156 330.476562 240.519531 330.636719 C 238.773438 331.335938 237.015625 332.015625 235.238281 332.652344 C 234.992188 332.742188 234.742188 332.820312 234.496094 332.910156 C 232.9375 333.457031 231.367188 333.972656 229.785156 334.472656 C 215.917969 338.824219 201.179688 341.183594 185.894531 341.183594 C 173.203125 341.183594 160.890625 339.554688 149.136719 336.515625 C 149.136719 336.511719 149.136719 336.511719 149.136719 336.507812 C 113.53125 327.25 83.136719 304.933594 63.386719 275.011719 C 57.339844 272.492188 51.878906 268.921875 47.175781 264.523438 C 53.464844 276.921875 61.394531 288.347656 70.628906 298.570312 C 70.558594 298.566406 70.484375 298.5625 70.414062 298.554688 C 98.925781 330.089844 140.125 349.949219 185.894531 349.949219 C 199.792969 349.949219 213.261719 348.101562 226.089844 344.671875 C 226.085938 344.679688 226.082031 344.691406 226.078125 344.703125 C 226.371094 344.625 226.65625 344.527344 226.953125 344.445312 C 229.078125 343.863281 231.183594 343.234375 233.273438 342.566406 C 233.902344 342.363281 234.527344 342.15625 235.152344 341.949219 C 237.273438 341.238281 239.375 340.492188 241.449219 339.695312 C 241.984375 339.492188 242.515625 339.273438 243.046875 339.0625 C 245.199219 338.210938 247.335938 337.324219 249.4375 336.378906 C 249.804688 336.214844 250.164062 336.039062 250.53125 335.871094 C 252.574219 334.933594 254.59375 333.957031 256.589844 332.9375 C 256.878906 332.789062 257.167969 332.648438 257.457031 332.5 C 259.578125 331.398438 261.664062 330.234375 263.730469 329.035156 C 264.113281 328.8125 264.503906 328.59375 264.890625 328.367188 C 266.902344 327.175781 268.882812 325.933594 270.832031 324.65625 C 271.226562 324.398438 271.621094 324.144531 272.015625 323.882812 C 273.964844 322.582031 275.882812 321.238281 277.769531 319.855469 C 278.113281 319.601562 278.453125 319.347656 278.796875 319.089844 C 280.722656 317.652344 282.617188 316.179688 284.472656 314.65625 C 284.710938 314.460938 284.945312 314.261719 285.179688 314.0625 C 287.132812 312.445312 289.050781 310.785156 290.917969 309.074219 C 290.953125 309.042969 290.988281 309.007812 291.023438 308.976562 C 294.988281 305.339844 298.761719 301.492188 302.335938 297.464844 C 302.402344 297.386719 302.472656 297.3125 302.542969 297.234375 C 304.300781 295.246094 306.003906 293.210938 307.660156 291.132812 " fill-opacity="1" fill-rule="nonzero"/><path fill="#223744" d="M 209.4375 216.480469 C 206.761719 216.480469 204.609375 214.308594 204.609375 211.65625 C 204.609375 209 206.761719 206.828125 209.4375 206.828125 C 212.09375 206.828125 214.265625 209 214.265625 211.65625 C 214.265625 214.308594 212.09375 216.480469 209.4375 216.480469 M 209.4375 201.957031 C 204.085938 201.957031 199.71875 206.300781 199.71875 211.65625 C 199.71875 215.84375 202.394531 219.417969 206.148438 220.757812 C 207.179688 221.152344 208.277344 221.351562 209.4375 221.351562 C 210.601562 221.351562 211.699219 221.152344 212.730469 220.757812 C 216.460938 219.417969 219.136719 215.84375 219.136719 211.65625 C 219.136719 206.300781 214.792969 201.957031 209.4375 201.957031 " fill-opacity="1" fill-rule="nonzero"/><path fill="#223744" d="M 251.261719 186.449219 C 248.609375 186.449219 246.433594 184.300781 246.433594 181.625 C 246.433594 178.96875 248.609375 176.796875 251.261719 176.796875 C 253.941406 176.796875 256.089844 178.96875 256.089844 181.625 C 256.089844 184.300781 253.941406 186.449219 251.261719 186.449219 M 251.261719 171.929688 C 245.910156 171.929688 241.5625 176.269531 241.5625 181.625 C 241.5625 185.792969 244.195312 189.367188 247.90625 190.707031 C 248.957031 191.101562 250.078125 191.320312 251.261719 191.320312 C 252.382812 191.320312 253.480469 191.121094 254.488281 190.75 C 258.261719 189.433594 260.984375 185.859375 260.984375 181.625 C 260.984375 176.269531 256.617188 171.929688 251.261719 171.929688 " fill-opacity="1" fill-rule="nonzero"/><path fill="#223744" d="M 273.863281 215.25 C 273.863281 212.574219 276.035156 210.425781 278.691406 210.425781 C 281.367188 210.425781 283.519531 212.574219 283.519531 215.25 C 283.519531 217.90625 281.367188 220.078125 278.691406 220.078125 C 276.035156 220.078125 273.863281 217.90625 273.863281 215.25 M 278.691406 205.535156 C 273.335938 205.535156 268.992188 209.898438 268.992188 215.25 C 268.992188 220.605469 273.335938 224.949219 278.691406 224.949219 C 278.957031 224.949219 279.21875 224.949219 279.460938 224.902344 C 281.785156 224.726562 283.890625 223.71875 285.472656 222.183594 C 287.273438 220.429688 288.390625 217.972656 288.390625 215.25 C 288.390625 209.898438 284.046875 205.535156 278.691406 205.535156 " fill-opacity="1" fill-rule="nonzero"/><path fill="#223744" d="M 212.730469 220.054688 L 212.730469 243.460938 C 212.730469 245.28125 211.238281 246.75 209.4375 246.75 L 188.21875 246.75 L 188.21875 272.078125 L 181.636719 272.078125 L 181.636719 243.460938 C 181.636719 241.660156 183.105469 240.167969 184.925781 240.167969 L 206.148438 240.167969 L 206.148438 220.054688 C 206.148438 218.234375 207.617188 216.761719 209.4375 216.761719 C 211.238281 216.761719 212.730469 218.234375 212.730469 220.054688 " fill-opacity="1" fill-rule="nonzero"/><path fill="#223744" d="M 254.488281 189.9375 L 254.488281 225.605469 C 254.488281 226.484375 254.136719 227.316406 253.523438 227.953125 L 223.417969 258.027344 L 223.417969 272.023438 L 216.832031 272.023438 L 216.832031 256.667969 C 216.832031 255.789062 217.183594 254.957031 217.800781 254.34375 L 247.90625 224.246094 L 247.90625 189.9375 C 247.90625 188.117188 249.375 186.648438 251.195312 186.648438 C 253.019531 186.648438 254.488281 188.117188 254.488281 189.9375 " fill-opacity="1" fill-rule="nonzero"/><path fill="#223744" d="M 258.195312 248.703125 L 258.195312 272 L 251.613281 272 L 251.613281 248.703125 C 251.613281 246.882812 253.105469 245.414062 254.90625 245.414062 C 256.726562 245.414062 258.195312 246.882812 258.195312 248.703125 " fill-opacity="1" fill-rule="nonzero"/><path fill="#223744" d="M 297.015625 248.199219 L 285.671875 271.386719 C 284.289062 271.628906 282.882812 271.824219 281.457031 271.957031 L 278.035156 271.96875 L 290.386719 246.773438 L 279.460938 224.902344 L 279.328125 224.664062 C 278.515625 223.039062 279.175781 221.066406 280.796875 220.253906 C 282.421875 219.441406 284.417969 220.101562 285.230469 221.722656 L 285.472656 222.183594 L 297.015625 245.28125 C 297.453125 246.203125 297.476562 247.277344 297.015625 248.199219 " fill-opacity="1" fill-rule="nonzero"/><path fill="#223744" d="M 160.527344 250.503906 L 160.527344 272.105469 L 153.945312 272.105469 L 153.945312 250.503906 C 153.945312 248.683594 155.414062 247.210938 157.234375 247.210938 C 159.054688 247.210938 160.527344 248.683594 160.527344 250.503906 " fill-opacity="1" fill-rule="nonzero"/><path fill="#ffffff" d="M 139.75 272.136719 L 133.164062 272.136719 L 133.164062 275.847656 C 133.164062 275.878906 133.152344 275.910156 133.152344 275.941406 L 133.152344 297.675781 C 133.152344 299.386719 134.628906 300.777344 136.445312 300.777344 C 138.261719 300.777344 139.738281 299.386719 139.738281 297.675781 L 139.738281 276.917969 L 139.75 276.917969 Z M 139.75 272.136719 " fill-opacity="1" fill-rule="nonzero"/></svg>