<svg xmlns="http://www.w3.org/2000/svg" xmlns:xlink="http://www.w3.org/1999/xlink" width="500" zoomAndPan="magnify" viewBox="0 0 375 374.999991" height="500" preserveAspectRatio="xMidYMid meet" version="1.0"><path fill="#ffffff" d="M 73.140625 81.621094 C 75.457031 84.027344 77.773438 85.878906 79.703125 87.230469 C 61.414062 109.617188 49.773438 137.609375 47.722656 168.1875 C 43.398438 174.511719 40.453125 181.675781 39.371094 189.335938 C 39.328125 189.445312 39.261719 189.550781 39.242188 189.679688 C 38.921875 185.730469 38.734375 181.761719 38.738281 177.726562 C 38.78125 141.285156 51.695312 107.824219 73.140625 81.621094 " fill-opacity="1" fill-rule="nonzero"/><path fill="#ffffff" d="M 343.242188 178.066406 C 343.238281 180.835938 343.128906 183.582031 342.976562 186.304688 C 341.09375 179.824219 338.136719 173.769531 334.300781 168.421875 C 329.40625 93.691406 267.125 34.324219 191.152344 34.242188 C 170.246094 34.21875 150.390625 38.679688 132.460938 46.730469 L 123.066406 41.675781 C 143.574219 31.398438 166.695312 25.628906 191.160156 25.65625 C 275.097656 25.75 343.335938 94.132812 343.242188 178.066406 " fill-opacity="1" fill-rule="nonzero"/><path fill="#ffffff" d="M 189.933594 280.960938 C 187.339844 280.957031 185.214844 278.851562 185.21875 276.234375 C 185.222656 273.636719 187.347656 271.515625 189.945312 271.519531 C 192.542969 271.523438 194.664062 273.648438 194.664062 276.246094 C 194.660156 278.863281 192.53125 280.964844 189.933594 280.960938 M 193.167969 267.335938 C 192.160156 266.949219 191.089844 266.753906 189.949219 266.753906 C 188.8125 266.753906 187.742188 266.945312 186.730469 267.328125 C 183.082031 268.632812 180.460938 272.128906 180.453125 276.230469 C 180.449219 281.464844 184.695312 285.742188 189.929688 285.746094 C 195.167969 285.753906 199.421875 281.488281 199.425781 276.25 C 199.429688 272.152344 196.816406 268.648438 193.167969 267.335938 " fill-opacity="1" fill-rule="nonzero"/><path fill="#ffffff" d="M 224.332031 306.707031 C 221.734375 306.707031 219.613281 304.578125 219.617188 301.960938 C 219.621094 299.363281 221.746094 297.242188 224.34375 297.246094 C 226.9375 297.246094 229.0625 299.375 229.058594 301.972656 C 229.054688 304.589844 226.929688 306.710938 224.332031 306.707031 M 227.566406 293.0625 C 226.558594 292.675781 225.484375 292.480469 224.347656 292.480469 C 223.210938 292.480469 222.136719 292.671875 221.128906 293.054688 C 217.476562 294.359375 214.855469 297.855469 214.851562 301.953125 C 214.847656 307.191406 219.089844 311.46875 224.328125 311.472656 C 229.5625 311.480469 233.816406 307.214844 233.824219 301.976562 C 233.828125 297.878906 231.214844 294.378906 227.566406 293.0625 " fill-opacity="1" fill-rule="nonzero"/><path fill="#ffffff" d="M 62.660156 23.371094 C 62.242188 23.175781 61.761719 23.386719 61.855469 23.839844 C 62.15625 25.324219 62.605469 26.78125 63.125 28.203125 C 64.078125 30.8125 65.320312 33.328125 66.738281 35.71875 C 67.664062 37.277344 68.613281 38.816406 69.683594 40.28125 C 70.613281 41.546875 71.863281 42.644531 72.496094 44.105469 C 73.277344 45.917969 73.285156 48.132812 73.363281 50.074219 C 73.4375 52.136719 73.476562 54.21875 73.890625 56.246094 C 74.125 57.394531 74.421875 58.558594 74.757812 59.667969 C 75 60.453125 75.300781 61.199219 75.628906 61.949219 C 76.042969 62.898438 76.511719 63.804688 77.035156 64.699219 C 78.757812 67.648438 81.039062 70.296875 83.53125 72.621094 C 84.449219 73.480469 85.363281 74.316406 86.34375 75.105469 C 87.160156 75.757812 88.070312 76.324219 88.824219 77.054688 C 90.292969 78.476562 91.289062 80.300781 91.769531 82.285156 C 92.265625 84.523438 92.691406 86.894531 93.640625 88.996094 C 95.046875 92.097656 97.675781 94.585938 100.339844 96.648438 C 103.109375 98.792969 106.152344 100.085938 109.1875 101.753906 C 110.855469 102.671875 112.085938 104.453125 112.800781 106.183594 C 112.878906 106.367188 112.988281 106.542969 113.070312 106.722656 C 113.402344 107.453125 113.773438 108.195312 114.207031 108.871094 C 116.839844 112.964844 120.980469 115.738281 125.332031 117.734375 C 127.59375 118.773438 129.902344 119.488281 132.035156 120.828125 C 133.953125 122.027344 135.84375 123.398438 137.394531 125.058594 C 138.761719 126.515625 139.484375 128.226562 141.214844 129.355469 C 142.488281 130.183594 143.863281 130.824219 145.304688 131.304688 C 148.363281 132.316406 151.617188 132.648438 154.757812 133.324219 C 157.914062 134.003906 160.949219 135.246094 164.144531 135.75 C 166.59375 136.136719 169.1875 136.15625 171.65625 136.027344 C 173.824219 135.910156 175.957031 135.523438 177.960938 134.691406 C 182.308594 132.886719 186.066406 129.890625 189.105469 126.320312 C 189.824219 125.476562 190.339844 125.984375 189.839844 127.0625 C 188.644531 129.644531 187.109375 132.042969 185.207031 134.164062 C 182.773438 136.878906 179.679688 139.035156 176.210938 140.191406 C 173.804688 140.992188 171.28125 141.195312 168.765625 141.386719 C 165.585938 141.632812 162.371094 141.632812 159.242188 140.910156 C 158.457031 140.726562 157.292969 141.042969 156.691406 141.578125 C 155.257812 142.855469 152.984375 144.167969 151.59375 145.394531 C 145.21875 150.996094 141.535156 153.273438 133.269531 158.515625 C 130.761719 160.109375 128.09375 161.460938 125.347656 162.601562 C 120.699219 164.535156 116.453125 166.261719 111.527344 166.875 C 106.828125 167.464844 102.425781 168.269531 97.710938 168.671875 C 95.953125 168.820312 93.363281 168.945312 91.605469 169.066406 C 88.9375 169.257812 86.398438 169.148438 83.757812 169.664062 C 81.933594 170.015625 80.042969 171.183594 78.523438 172.273438 C 77.238281 173.195312 75.296875 175.140625 75.769531 176.894531 C 75.898438 177.382812 76.195312 177.867188 76.4375 178.304688 C 78.101562 181.320312 79.234375 184.710938 79.378906 188.167969 C 79.4375 189.640625 79.25 191.144531 79.640625 192.59375 C 80.398438 195.390625 82.273438 197.582031 84.796875 198.972656 C 85.875 199.5625 87.015625 200.078125 88.21875 200.316406 C 89.738281 200.609375 91.121094 201.117188 92.308594 202.128906 C 93.382812 203.054688 94.207031 204.222656 95.054688 205.351562 C 96.15625 206.824219 97.097656 208.386719 97.730469 210.117188 C 98.566406 212.410156 99.144531 214.824219 100.875 216.625 C 100.910156 216.664062 100.910156 216.660156 100.941406 216.691406 C 102.640625 218.40625 105.011719 219.253906 107.378906 219.449219 C 109.773438 219.585938 112.097656 219.1875 114.488281 219.121094 C 115.976562 219.066406 117.523438 219.289062 118.980469 219.597656 C 120.644531 219.945312 122.179688 220.65625 123.539062 221.679688 C 125.480469 223.140625 127.648438 224.242188 130.109375 224.371094 C 132.667969 224.503906 135.28125 223.96875 137.6875 223.105469 C 139.289062 222.53125 140.746094 221.652344 142.050781 220.5625 C 145.710938 217.496094 149.875 214.132812 152.59375 210.246094 C 156.128906 205.1875 158.820312 200.761719 161.929688 195.433594 C 163.585938 192.605469 164.550781 190.648438 166.164062 187.792969 C 167.042969 186.242188 167.925781 184.660156 168.785156 183.101562 C 169.511719 181.792969 170.003906 180.832031 171.339844 180.089844 C 172.480469 179.449219 174.207031 179.027344 175.496094 178.882812 C 176.6875 178.753906 177.871094 178.707031 179.054688 178.621094 C 181.125 178.472656 183.183594 178.203125 185.222656 177.824219 C 193.519531 176.277344 202.21875 174.179688 209.3125 169.265625 C 213.816406 166.140625 219.234375 161.570312 222.804688 157.410156 C 226.789062 152.765625 229.78125 147.386719 231.945312 141.660156 C 233.027344 138.796875 233.882812 135.867188 234.570312 132.878906 C 235.257812 129.890625 235.785156 126.839844 236.121094 123.824219 C 236.570312 119.789062 236.585938 116.074219 237.074219 112.023438 C 237.578125 107.84375 238.238281 104.082031 239.636719 100.222656 C 240.902344 96.726562 242.597656 93.160156 244.8125 90.035156 C 245.664062 88.832031 247.058594 87.53125 248.4375 86.285156 C 250.589844 84.332031 252.890625 82.515625 254.679688 81.394531 C 255.050781 81.164062 255.175781 80.644531 254.882812 80.324219 C 253.832031 79.15625 252.074219 77.4375 251.132812 76.226562 C 248.589844 72.972656 246.390625 68.769531 242.960938 66.292969 C 238.773438 63.269531 233.105469 61.800781 227.875 62.320312 C 226.132812 62.492188 224.410156 62.894531 222.84375 63.519531 C 220.84375 64.320312 217.269531 66.828125 214.117188 69.210938 C 212.476562 70.453125 210.683594 71.773438 209.886719 72.558594 C 203.820312 78.570312 201.121094 81.839844 196.1875 88.839844 C 195.976562 89.140625 197.921875 90.683594 198.199219 90.921875 C 200.417969 92.859375 208.695312 101.375 210.648438 111.324219 C 210.746094 111.8125 210.089844 112.085938 209.84375 111.660156 C 207.539062 107.628906 201.277344 99.109375 186.730469 90.910156 C 174.925781 84.253906 166.269531 79.621094 154.289062 73.101562 C 145.949219 68.566406 131.699219 60.738281 131.699219 60.738281 C 131.699219 60.738281 67.195312 25.492188 62.660156 23.371094 Z M 232.558594 72.585938 C 235.148438 72.589844 237.25 74.691406 237.246094 77.285156 C 237.246094 77.703125 236.878906 77.972656 236.777344 78.359375 C 236.242188 80.363281 234.722656 81.976562 232.546875 81.972656 C 229.953125 81.972656 227.855469 79.867188 227.855469 77.273438 C 227.859375 76.164062 228.355469 75.261719 229 74.460938 C 229.863281 73.386719 231.074219 72.582031 232.558594 72.585938 Z M 232.558594 72.585938 " fill-opacity="1" fill-rule="nonzero"/><path fill="#ffffff" d="M 154.71875 316.914062 C 119.90625 307.816406 90.203125 285.953125 70.917969 256.65625 C 65.007812 254.1875 59.667969 250.6875 55.074219 246.378906 C 75.40625 286.5625 113.019531 316.582031 158.097656 326.550781 C 156.617188 323.515625 155.464844 320.292969 154.71875 316.914062 " fill-opacity="1" fill-rule="nonzero"/><path fill="#ffffff" d="M 193.179688 253.925781 L 193.167969 268.023438 C 193.167969 269.804688 191.726562 271.242188 189.945312 271.238281 C 188.164062 271.238281 186.730469 269.796875 186.730469 268.019531 L 186.742188 253.917969 Z M 193.179688 253.925781 " fill-opacity="1" fill-rule="nonzero"/><path fill="#ffffff" d="M 227.605469 253.90625 L 227.566406 293.707031 C 227.5625 295.488281 226.125 296.925781 224.34375 296.921875 C 222.5625 296.921875 221.125 295.484375 221.128906 293.699219 L 221.167969 253.902344 Z M 227.605469 253.90625 " fill-opacity="1" fill-rule="nonzero"/><path fill="#ffffff" d="M 261.621094 253.921875 L 261.597656 281.535156 C 261.59375 283.316406 260.15625 284.753906 258.375 284.75 C 256.59375 284.746094 255.15625 283.308594 255.160156 281.527344 L 255.183594 253.917969 Z M 261.621094 253.921875 " fill-opacity="1" fill-rule="nonzero"/><path fill="#ffffff" d="M 288.476562 253.367188 L 281.808594 266.921875 C 281.25 268.058594 280.113281 268.722656 278.929688 268.71875 C 278.4375 268.71875 277.964844 268.613281 277.515625 268.398438 C 275.90625 267.601562 275.265625 265.667969 276.039062 264.082031 L 281.027344 253.914062 L 283.972656 253.90625 L 284.375 253.90625 C 285.746094 253.777344 287.125 253.621094 288.476562 253.367188 " fill-opacity="1" fill-rule="nonzero"/><path fill="#ffffff" d="M 166.097656 253.921875 L 166.050781 299.96875 C 166.046875 301.730469 164.609375 303.1875 162.828125 303.183594 C 161.042969 303.183594 159.609375 301.722656 159.609375 299.960938 L 159.65625 253.914062 Z M 166.097656 253.921875 " fill-opacity="1" fill-rule="nonzero"/><path fill="#ffffff" d="M 309.976562 272.695312 C 310.035156 272.625 310.09375 272.550781 310.152344 272.480469 C 311.429688 270.871094 312.691406 269.246094 313.910156 267.582031 C 313.886719 267.582031 313.867188 267.582031 313.84375 267.582031 C 318.960938 260.59375 323.527344 253.175781 327.410156 245.351562 C 322.675781 249.90625 317.15625 253.664062 311.191406 256.398438 C 303.21875 268.566406 293.453125 279.453125 282.273438 288.6875 C 282.265625 288.691406 282.257812 288.699219 282.25 288.707031 C 279.101562 291.304688 275.839844 293.765625 272.480469 296.09375 C 272.394531 296.148438 272.316406 296.210938 272.230469 296.265625 C 270.570312 297.410156 268.890625 298.519531 267.179688 299.59375 C 267.128906 299.628906 267.074219 299.660156 267.019531 299.691406 C 265.359375 300.734375 263.675781 301.738281 261.972656 302.714844 C 261.875 302.769531 261.773438 302.828125 261.675781 302.886719 C 259.992188 303.839844 258.289062 304.757812 256.566406 305.648438 C 256.320312 305.773438 256.074219 305.898438 255.824219 306.023438 C 254.132812 306.886719 252.429688 307.71875 250.699219 308.511719 C 250.664062 308.53125 250.628906 308.542969 250.597656 308.5625 C 248.890625 309.34375 247.15625 310.085938 245.414062 310.804688 C 245.035156 310.960938 244.652344 311.113281 244.269531 311.269531 C 242.5625 311.953125 240.839844 312.613281 239.101562 313.234375 C 238.863281 313.320312 238.617188 313.398438 238.375 313.484375 C 236.851562 314.019531 235.3125 314.523438 233.765625 315.007812 C 220.199219 319.253906 205.78125 321.546875 190.832031 321.527344 C 178.417969 321.515625 166.378906 319.90625 154.886719 316.921875 C 154.886719 316.917969 154.882812 316.914062 154.882812 316.914062 C 120.070312 307.816406 90.371094 285.953125 71.085938 256.65625 C 65.175781 254.183594 59.835938 250.6875 55.238281 246.378906 C 61.378906 258.515625 69.121094 269.703125 78.144531 279.710938 C 78.070312 279.707031 78 279.703125 77.929688 279.699219 C 105.78125 310.582031 146.054688 330.054688 190.820312 330.105469 C 204.414062 330.117188 217.59375 328.328125 230.140625 324.980469 C 230.136719 324.992188 230.132812 325.003906 230.128906 325.015625 C 230.417969 324.9375 230.695312 324.839844 230.984375 324.761719 C 233.0625 324.195312 235.125 323.585938 237.167969 322.933594 C 237.78125 322.734375 238.398438 322.53125 239.007812 322.328125 C 241.082031 321.640625 243.136719 320.90625 245.167969 320.132812 C 245.691406 319.933594 246.210938 319.722656 246.730469 319.515625 C 248.835938 318.683594 250.929688 317.820312 252.988281 316.898438 C 253.34375 316.738281 253.695312 316.566406 254.054688 316.402344 C 256.054688 315.488281 258.03125 314.53125 259.984375 313.535156 C 260.265625 313.390625 260.550781 313.257812 260.832031 313.109375 C 262.910156 312.035156 264.949219 310.898438 266.972656 309.730469 C 267.347656 309.511719 267.730469 309.296875 268.105469 309.074219 C 270.074219 307.914062 272.015625 306.699219 273.925781 305.453125 C 274.308594 305.199219 274.695312 304.949219 275.082031 304.695312 C 276.988281 303.421875 278.867188 302.113281 280.714844 300.761719 C 281.050781 300.515625 281.382812 300.265625 281.71875 300.015625 C 283.605469 298.613281 285.457031 297.171875 287.273438 295.683594 C 287.507812 295.492188 287.734375 295.296875 287.96875 295.101562 C 289.878906 293.523438 291.753906 291.902344 293.585938 290.230469 C 293.621094 290.199219 293.652344 290.164062 293.6875 290.136719 C 297.570312 286.578125 301.265625 282.820312 304.765625 278.882812 C 304.832031 278.808594 304.898438 278.734375 304.964844 278.660156 C 306.6875 276.714844 308.355469 274.726562 309.976562 272.695312 " fill-opacity="1" fill-rule="nonzero"/><path fill="#ffffff" d="M 145.773438 253.925781 L 139.335938 253.921875 L 139.332031 257.550781 C 139.332031 257.582031 139.320312 257.613281 139.320312 257.644531 L 139.296875 278.90625 C 139.292969 280.582031 140.734375 281.941406 142.511719 281.945312 C 144.289062 281.949219 145.734375 280.585938 145.734375 278.914062 L 145.757812 258.605469 L 145.769531 258.605469 Z M 145.773438 253.925781 " fill-opacity="1" fill-rule="nonzero"/><path fill="#ffffff" d="M 281.71875 193.691406 C 279.113281 193.6875 277.019531 195.84375 277.019531 198.445312 C 277.015625 201.050781 279.101562 203.144531 281.707031 203.144531 C 284.3125 203.148438 286.472656 201.0625 286.472656 198.457031 C 286.476562 195.855469 284.324219 193.695312 281.71875 193.691406 Z M 281.71875 193.691406 " fill-opacity="1" fill-rule="nonzero"/><path fill="#ffffff" d="M 190.445312 65.765625 C 180.425781 65.753906 170.925781 67.671875 161.871094 70.5625 C 163.375 71.308594 164.859375 72.089844 166.359375 72.847656 C 171.359375 75.363281 176.378906 77.863281 181.308594 80.507812 C 184.414062 82.175781 187.757812 83.785156 190.625 85.882812 C 190.925781 86.105469 191.34375 86.054688 191.566406 85.75 C 192.03125 85.105469 192.71875 84.152344 192.773438 84.074219 C 196.148438 79.546875 199.816406 75.164062 203.785156 71.144531 C 205.054688 69.863281 206.523438 68.691406 207.882812 67.460938 C 202.222656 66.390625 196.417969 65.773438 190.445312 65.765625 Z M 190.445312 65.765625 " fill-opacity="1" fill-rule="nonzero"/><path fill="#ffffff" d="M 214.117188 69.210938 C 212.476562 70.453125 210.683594 71.773438 209.886719 72.558594 C 203.820312 78.570312 201.121094 81.839844 196.1875 88.839844 C 195.976562 89.140625 197.921875 90.683594 198.199219 90.921875 C 200.417969 92.859375 208.695312 101.375 210.648438 111.324219 C 210.746094 111.8125 210.089844 112.085938 209.84375 111.660156 C 207.539062 107.628906 201.277344 99.109375 186.730469 90.910156 C 174.925781 84.253906 166.269531 79.621094 154.289062 73.101562 C 137.464844 80.101562 123.289062 91.90625 113.070312 106.722656 C 113.402344 107.453125 113.773438 108.195312 114.207031 108.871094 C 116.839844 112.964844 120.980469 115.738281 125.332031 117.734375 C 127.59375 118.773438 129.902344 119.488281 132.035156 120.828125 C 133.953125 122.027344 135.84375 123.398438 137.394531 125.058594 C 138.761719 126.515625 139.484375 128.226562 141.214844 129.355469 C 142.488281 130.183594 143.863281 130.824219 145.304688 131.304688 C 148.363281 132.316406 151.617188 132.648438 154.757812 133.324219 C 157.914062 134.003906 160.949219 135.246094 164.144531 135.75 C 166.59375 136.136719 169.1875 136.15625 171.65625 136.027344 C 173.824219 135.910156 175.957031 135.523438 177.960938 134.691406 C 182.308594 132.886719 186.066406 129.890625 189.105469 126.320312 C 189.824219 125.476562 190.339844 125.984375 189.839844 127.0625 C 188.644531 129.644531 187.109375 132.042969 185.207031 134.164062 C 182.773438 136.878906 179.679688 139.035156 176.210938 140.191406 C 173.804688 140.992188 171.28125 141.195312 168.765625 141.386719 C 165.585938 141.632812 162.371094 141.632812 159.242188 140.910156 C 158.457031 140.726562 157.292969 141.042969 156.691406 141.578125 C 155.257812 142.855469 152.984375 144.167969 151.59375 145.394531 C 145.21875 150.996094 141.535156 153.273438 133.269531 158.515625 C 130.761719 160.109375 128.09375 161.460938 125.347656 162.601562 C 120.699219 164.535156 116.453125 166.261719 111.527344 166.875 C 106.828125 167.464844 102.425781 168.269531 97.710938 168.671875 C 95.953125 168.820312 93.363281 168.945312 91.605469 169.066406 C 88.9375 169.257812 86.398438 169.148438 83.757812 169.664062 C 81.933594 170.015625 80.042969 171.183594 78.523438 172.273438 C 77.238281 173.195312 75.296875 175.140625 75.769531 176.894531 C 75.898438 177.382812 76.195312 177.863281 76.4375 178.304688 C 78.101562 181.320312 79.234375 184.710938 79.378906 188.167969 C 79.4375 189.640625 79.25 191.144531 79.640625 192.59375 C 80.398438 195.390625 82.273438 197.582031 84.796875 198.972656 C 85.875 199.5625 87.015625 200.078125 88.21875 200.316406 C 89.738281 200.609375 91.121094 201.117188 92.308594 202.128906 C 93.382812 203.054688 94.207031 204.222656 95.054688 205.351562 C 96.15625 206.824219 97.097656 208.386719 97.730469 210.117188 C 98.566406 212.410156 99.144531 214.824219 100.875 216.625 C 100.910156 216.664062 100.910156 216.660156 100.941406 216.691406 C 102.640625 218.40625 105.011719 219.253906 107.378906 219.449219 C 109.773438 219.585938 112.097656 219.1875 114.488281 219.121094 C 115.976562 219.066406 117.523438 219.289062 118.980469 219.597656 C 120.644531 219.945312 122.179688 220.65625 123.539062 221.679688 C 125.480469 223.140625 127.648438 224.242188 130.109375 224.371094 C 132.667969 224.503906 135.28125 223.96875 137.6875 223.105469 C 139.289062 222.53125 140.746094 221.652344 142.050781 220.5625 C 145.710938 217.496094 149.875 214.132812 152.59375 210.246094 C 156.128906 205.1875 158.820312 200.761719 161.929688 195.433594 C 163.585938 192.605469 164.550781 190.648438 166.164062 187.792969 C 167.042969 186.242188 167.925781 184.660156 168.785156 183.101562 C 169.511719 181.792969 170.003906 180.832031 171.339844 180.089844 C 172.480469 179.449219 174.207031 179.027344 175.496094 178.882812 C 176.6875 178.753906 177.871094 178.707031 179.054688 178.621094 C 181.125 178.472656 183.183594 178.203125 185.222656 177.824219 C 193.519531 176.277344 202.21875 174.179688 209.3125 169.265625 C 213.816406 166.140625 219.234375 161.570312 222.804688 157.410156 C 226.789062 152.765625 229.78125 147.386719 231.945312 141.660156 C 233.027344 138.796875 233.882812 135.867188 234.570312 132.878906 C 235.257812 129.890625 235.785156 126.839844 236.121094 123.824219 C 236.570312 119.789062 236.585938 116.074219 237.074219 112.023438 C 237.578125 107.84375 238.238281 104.082031 239.636719 100.222656 C 240.902344 96.726562 242.597656 93.160156 244.8125 90.035156 C 245.664062 88.832031 247.058594 87.53125 248.4375 86.285156 C 244.746094 83.367188 240.886719 80.703125 236.777344 78.359375 C 236.242188 80.363281 234.722656 81.976562 232.546875 81.972656 C 229.953125 81.972656 227.855469 79.867188 227.855469 77.273438 C 227.859375 76.164062 228.355469 75.261719 229 74.460938 C 224.238281 72.296875 219.265625 70.5625 214.117188 69.210938 Z M 214.117188 69.210938 " fill-opacity="1" fill-rule="nonzero"/><path fill="#ffffff" d="M 252.257812 89.171875 C 250.808594 90.359375 249.554688 91.933594 248.5625 93.460938 C 246.644531 96.410156 245.226562 99.691406 244.195312 103.046875 C 243.648438 104.8125 243.285156 106.652344 242.980469 108.476562 C 241.363281 118.25 242.074219 128.304688 239.058594 137.84375 C 238.097656 140.875 236.957031 143.808594 235.625 146.695312 C 233.027344 152.332031 229.71875 157.695312 225.550781 162.308594 C 221.222656 167.097656 215.445312 171.460938 209.773438 174.496094 C 204.070312 177.554688 199.894531 179.328125 193.671875 180.984375 C 187.933594 182.507812 181.035156 183.691406 175.023438 184.855469 C 173.96875 185.054688 173.085938 185.765625 172.605469 186.730469 C 168.964844 194.050781 152.53125 225.644531 138.621094 228.941406 C 127.574219 231.570312 121.835938 228.289062 119.375 226.101562 C 118.328125 225.164062 116.910156 224.875 115.554688 225.226562 C 111.433594 226.269531 103.152344 227.320312 96.042969 221.113281 C 96.042969 221.113281 91.339844 217.292969 90.886719 210.914062 C 90.785156 209.457031 89.753906 208.207031 88.34375 207.828125 C 86.003906 207.203125 83.75 206.234375 81.707031 204.933594 C 79.058594 203.253906 76.847656 201.011719 75.277344 198.289062 C 73.378906 195 71.644531 189.992188 73.074219 186.28125 C 73.5 185.179688 73.726562 184.089844 72.8125 183.128906 C 70.515625 180.714844 65.59375 174.167969 71.953125 169.3125 C 74.089844 167.683594 76.414062 166.265625 78.867188 165.164062 C 82.238281 163.648438 85.632812 163.058594 89.332031 163.164062 C 90.164062 163.1875 90.984375 163.238281 91.8125 163.234375 C 95.542969 163.210938 99.304688 162.96875 103.015625 162.574219 C 107.890625 162.054688 112.761719 161.203125 117.4375 159.707031 C 129.152344 155.960938 145.5625 143.886719 150.523438 140.09375 C 151.007812 139.726562 150.789062 138.984375 150.191406 138.886719 C 146.792969 138.320312 143.507812 137.921875 140.335938 136.328125 C 137.148438 134.730469 134.3125 132.402344 132.09375 129.613281 C 130.25 127.292969 128.515625 125.265625 125.859375 123.835938 C 123.503906 122.574219 120.953125 121.769531 118.554688 120.675781 C 114.917969 119.019531 111.511719 116.589844 109.375 113.15625 C 109.308594 113.046875 109.242188 112.929688 109.171875 112.820312 C 102.753906 123.855469 98.265625 136.125 96.792969 149.421875 C 69.734375 151.414062 48.410156 173.976562 48.378906 201.542969 C 48.34375 230.445312 71.730469 253.882812 100.632812 253.914062 L 139.332031 253.957031 L 139.332031 253.890625 L 145.769531 253.894531 L 145.769531 253.964844 L 159.652344 253.980469 L 159.652344 253.910156 L 159.675781 232.789062 C 159.679688 231.003906 161.117188 229.570312 162.898438 229.570312 C 164.679688 229.574219 166.117188 231.011719 166.117188 232.792969 L 166.09375 253.917969 L 166.09375 253.988281 L 186.75 254.007812 L 186.75 253.941406 L 186.78125 225.910156 C 186.78125 224.148438 188.222656 222.691406 190.003906 222.691406 L 210.726562 222.71875 L 210.75 203.738281 C 207.078125 202.425781 204.515625 198.910156 204.519531 194.8125 C 204.527344 189.574219 208.75 185.359375 213.988281 185.367188 C 219.226562 185.371094 223.507812 189.597656 223.5 194.832031 C 223.496094 198.929688 220.835938 202.441406 217.1875 203.746094 L 217.164062 225.945312 C 217.160156 226.832031 216.808594 227.640625 216.222656 228.222656 C 215.636719 228.804688 214.820312 229.160156 213.941406 229.160156 L 193.214844 229.136719 L 193.1875 253.949219 L 193.1875 254.015625 L 221.15625 254.046875 L 221.15625 253.914062 L 221.171875 238.890625 C 221.171875 238.03125 221.511719 237.210938 222.113281 236.613281 L 251.589844 207.203125 L 251.625 174.34375 C 248.023438 172.988281 245.460938 169.550781 245.464844 165.484375 C 245.472656 160.25 249.699219 156.03125 254.933594 156.039062 C 260.167969 156.042969 264.449219 160.269531 264.445312 165.503906 C 264.441406 169.621094 261.738281 173.109375 258.0625 174.417969 L 258.027344 208.550781 C 258.023438 209.410156 257.6875 210.210938 257.085938 210.832031 L 227.609375 240.238281 L 227.59375 253.921875 L 227.59375 254.054688 L 255.160156 254.085938 L 255.160156 253.882812 L 255.183594 231.148438 C 255.1875 229.367188 256.648438 227.933594 258.40625 227.933594 C 260.1875 227.9375 261.625 229.375 261.621094 231.15625 L 261.597656 253.890625 L 261.597656 254.089844 L 280.980469 254.113281 L 281.046875 253.914062 L 293.148438 229.246094 L 282.441406 207.84375 L 282.441406 207.773438 C 282.183594 207.792969 281.960938 207.90625 281.703125 207.90625 C 276.46875 207.902344 272.253906 203.675781 272.253906 198.441406 C 272.261719 193.207031 276.488281 188.921875 281.722656 188.929688 C 286.957031 188.933594 291.242188 193.226562 291.238281 198.460938 C 291.234375 201.113281 290.105469 203.507812 288.347656 205.234375 L 299.585938 227.847656 C 300.015625 228.746094 300.039062 229.761719 299.585938 230.660156 L 288.628906 253.117188 C 313.03125 248.828125 331.644531 227.761719 331.675781 202.128906 C 331.707031 174.828125 310.71875 152.449219 283.980469 150.234375 C 281.492188 125.925781 269.675781 104.429688 252.257812 89.171875 Z M 252.257812 89.171875 " fill-opacity="1" fill-rule="nonzero"/><path fill="#ffffff" d="M 213.984375 190.128906 C 211.363281 190.125 209.285156 192.21875 209.28125 194.816406 C 209.28125 197.414062 211.355469 199.582031 213.972656 199.582031 C 216.570312 199.585938 218.734375 197.421875 218.738281 194.828125 C 218.742188 192.230469 216.578125 190.128906 213.984375 190.128906 Z M 213.984375 190.128906 " fill-opacity="1" fill-rule="nonzero"/><path fill="#ffffff" d="M 254.925781 160.796875 C 252.320312 160.796875 250.230469 162.886719 250.226562 165.488281 C 250.222656 168.09375 252.3125 170.25 254.917969 170.253906 C 257.523438 170.257812 259.679688 168.105469 259.683594 165.5 C 259.6875 162.894531 257.53125 160.800781 254.925781 160.796875 Z M 254.925781 160.796875 " fill-opacity="1" fill-rule="nonzero"/></svg>