<svg xmlns="http://www.w3.org/2000/svg" xmlns:xlink="http://www.w3.org/1999/xlink" width="2457" zoomAndPan="magnify" viewBox="0 0 1842.75 464.999988" height="620" preserveAspectRatio="xMidYMid meet" version="1.0"><defs><g/><clipPath id="b7b3452ef5"><path d="M 0 0.03125 L 1842.5 0.03125 L 1842.5 464.96875 L 0 464.96875 Z M 0 0.03125 " clip-rule="nonzero"/></clipPath><clipPath id="7e73e83431"><rect x="0" width="991" y="0" height="374"/></clipPath></defs><g clip-path="url(#b7b3452ef5)"><path fill="#ffffff" d="M 0 0.03125 L 1842.5 0.03125 L 1842.5 464.96875 L 0 464.96875 Z M 0 0.03125 " fill-opacity="1" fill-rule="nonzero"/><path fill="#ffffff" d="M 0 0.03125 L 1842.5 0.03125 L 1842.5 464.96875 L 0 464.96875 Z M 0 0.03125 " fill-opacity="1" fill-rule="nonzero"/></g><g transform="matrix(1, 0, 0, 1, 590, 53)"><g clip-path="url(#7e73e83431)"><g fill="#ffffff" fill-opacity="1"><g transform="translate(0.904575, 130.572023)"><g><path d="M 4.671875 -58.828125 C 4.078125 -59.753906 3.523438 -61.015625 3.015625 -62.609375 C 2.515625 -64.210938 2.265625 -65.898438 2.265625 -67.671875 C 2.265625 -70.953125 3 -73.304688 4.46875 -74.734375 C 5.945312 -76.171875 7.863281 -76.890625 10.21875 -76.890625 L 65.265625 -76.890625 C 65.859375 -75.960938 66.40625 -74.695312 66.90625 -73.09375 C 67.414062 -71.5 67.671875 -69.816406 67.671875 -68.046875 C 67.671875 -64.765625 66.929688 -62.40625 65.453125 -60.96875 C 63.984375 -59.539062 62.070312 -58.828125 59.71875 -58.828125 L 45.703125 -58.828125 L 45.703125 -0.5 C 44.773438 -0.25 43.320312 0 41.34375 0.25 C 39.363281 0.5 37.40625 0.625 35.46875 0.625 C 33.539062 0.625 31.835938 0.476562 30.359375 0.1875 C 28.890625 -0.101562 27.648438 -0.628906 26.640625 -1.390625 C 25.628906 -2.148438 24.867188 -3.203125 24.359375 -4.546875 C 23.859375 -5.890625 23.609375 -7.65625 23.609375 -9.84375 L 23.609375 -58.828125 Z M 4.671875 -58.828125 "/></g></g></g><g fill="#ffffff" fill-opacity="1"><g transform="translate(67.900544, 130.572023)"><g><path d="M 6.5625 -60.46875 C 7.40625 -60.726562 8.726562 -60.984375 10.53125 -61.234375 C 12.34375 -61.484375 14.21875 -61.609375 16.15625 -61.609375 C 18.007812 -61.609375 19.671875 -61.484375 21.140625 -61.234375 C 22.617188 -60.984375 23.863281 -60.476562 24.875 -59.71875 C 25.882812 -58.957031 26.660156 -57.925781 27.203125 -56.625 C 27.753906 -55.320312 28.03125 -53.617188 28.03125 -51.515625 L 28.03125 -24.359375 C 28.03125 -20.910156 28.867188 -18.445312 30.546875 -16.96875 C 32.234375 -15.5 34.675781 -14.765625 37.875 -14.765625 C 39.8125 -14.765625 41.390625 -14.929688 42.609375 -15.265625 C 43.828125 -15.609375 44.773438 -15.945312 45.453125 -16.28125 L 45.453125 -60.46875 C 46.296875 -60.726562 47.617188 -60.984375 49.421875 -61.234375 C 51.234375 -61.484375 53.109375 -61.609375 55.046875 -61.609375 C 56.898438 -61.609375 58.5625 -61.484375 60.03125 -61.234375 C 61.5 -60.984375 62.738281 -60.476562 63.75 -59.71875 C 64.757812 -58.957031 65.535156 -57.925781 66.078125 -56.625 C 66.628906 -55.320312 66.90625 -53.617188 66.90625 -51.515625 L 66.90625 -13.125 C 66.90625 -8.914062 65.140625 -5.757812 61.609375 -3.65625 C 58.660156 -1.8125 55.144531 -0.40625 51.0625 0.5625 C 46.976562 1.53125 42.539062 2.015625 37.75 2.015625 C 33.207031 2.015625 29.019531 1.507812 25.1875 0.5 C 21.351562 -0.507812 18.046875 -2.066406 15.265625 -4.171875 C 12.492188 -6.273438 10.347656 -8.988281 8.828125 -12.3125 C 7.316406 -15.632812 6.5625 -19.648438 6.5625 -24.359375 Z M 6.5625 -60.46875 "/></g></g></g><g fill="#ffffff" fill-opacity="1"><g transform="translate(141.333194, 130.572023)"><g><path d="M 28.03125 -0.125 C 27.1875 0.125 25.859375 0.375 24.046875 0.625 C 22.242188 0.882812 20.375 1.015625 18.4375 1.015625 C 16.582031 1.015625 14.914062 0.882812 13.4375 0.625 C 11.96875 0.375 10.726562 -0.125 9.71875 -0.875 C 8.707031 -1.632812 7.925781 -2.664062 7.375 -3.96875 C 6.832031 -5.28125 6.5625 -6.988281 6.5625 -9.09375 L 6.5625 -46.96875 C 6.5625 -48.90625 6.921875 -50.566406 7.640625 -51.953125 C 8.359375 -53.335938 9.390625 -54.578125 10.734375 -55.671875 C 12.078125 -56.765625 13.738281 -57.753906 15.71875 -58.640625 C 17.695312 -59.523438 19.820312 -60.300781 22.09375 -60.96875 C 24.363281 -61.644531 26.71875 -62.171875 29.15625 -62.546875 C 31.601562 -62.929688 34.046875 -63.125 36.484375 -63.125 C 40.523438 -63.125 43.722656 -62.34375 46.078125 -60.78125 C 48.429688 -59.226562 49.609375 -56.6875 49.609375 -53.15625 C 49.609375 -51.976562 49.441406 -50.816406 49.109375 -49.671875 C 48.773438 -48.535156 48.351562 -47.507812 47.84375 -46.59375 C 46.082031 -46.59375 44.273438 -46.503906 42.421875 -46.328125 C 40.566406 -46.160156 38.753906 -45.910156 36.984375 -45.578125 C 35.222656 -45.242188 33.5625 -44.882812 32 -44.5 C 30.445312 -44.125 29.125 -43.679688 28.03125 -43.171875 Z M 28.03125 -0.125 "/></g></g></g><g fill="#ffffff" fill-opacity="1"><g transform="translate(193.190202, 130.572023)"><g><path d="M 28.03125 -21.078125 C 28.03125 -18.890625 28.722656 -17.332031 30.109375 -16.40625 C 31.492188 -15.488281 33.453125 -15.03125 35.984375 -15.03125 C 37.242188 -15.03125 38.546875 -15.132812 39.890625 -15.34375 C 41.242188 -15.550781 42.425781 -15.820312 43.4375 -16.15625 C 44.1875 -15.226562 44.832031 -14.195312 45.375 -13.0625 C 45.925781 -11.925781 46.203125 -10.5625 46.203125 -8.96875 C 46.203125 -5.769531 45.003906 -3.160156 42.609375 -1.140625 C 40.210938 0.878906 35.984375 1.890625 29.921875 1.890625 C 22.515625 1.890625 16.8125 0.207031 12.8125 -3.15625 C 8.8125 -6.519531 6.8125 -11.988281 6.8125 -19.5625 L 6.8125 -73.609375 C 7.738281 -73.859375 9.0625 -74.128906 10.78125 -74.421875 C 12.507812 -74.710938 14.34375 -74.859375 16.28125 -74.859375 C 19.988281 -74.859375 22.875 -74.207031 24.9375 -72.90625 C 27 -71.601562 28.03125 -68.847656 28.03125 -64.640625 L 28.03125 -56.5625 L 44.5625 -56.5625 C 45.070312 -55.632812 45.554688 -54.472656 46.015625 -53.078125 C 46.484375 -51.691406 46.71875 -50.160156 46.71875 -48.484375 C 46.71875 -45.535156 46.0625 -43.40625 44.75 -42.09375 C 43.445312 -40.789062 41.703125 -40.140625 39.515625 -40.140625 L 28.03125 -40.140625 Z M 28.03125 -21.078125 "/></g></g></g><g fill="#ffffff" fill-opacity="1"><g transform="translate(243.659366, 130.572023)"><g><path d="M 28.40625 -0.125 C 27.476562 0.0390625 26.109375 0.269531 24.296875 0.5625 C 22.492188 0.863281 20.664062 1.015625 18.8125 1.015625 C 16.957031 1.015625 15.289062 0.882812 13.8125 0.625 C 12.34375 0.375 11.101562 -0.125 10.09375 -0.875 C 9.082031 -1.632812 8.300781 -2.664062 7.75 -3.96875 C 7.207031 -5.28125 6.9375 -6.988281 6.9375 -9.09375 L 6.9375 -82.3125 C 7.863281 -82.476562 9.234375 -82.707031 11.046875 -83 C 12.859375 -83.300781 14.6875 -83.453125 16.53125 -83.453125 C 18.382812 -83.453125 20.046875 -83.320312 21.515625 -83.0625 C 22.992188 -82.8125 24.238281 -82.304688 25.25 -81.546875 C 26.257812 -80.796875 27.035156 -79.765625 27.578125 -78.453125 C 28.128906 -77.148438 28.40625 -75.445312 28.40625 -73.34375 Z M 28.40625 -0.125 "/></g></g></g><g fill="#ffffff" fill-opacity="1"><g transform="translate(278.987847, 130.572023)"><g><path d="M 39.015625 2.015625 C 34.046875 2.015625 29.4375 1.320312 25.1875 -0.0625 C 20.9375 -1.445312 17.234375 -3.53125 14.078125 -6.3125 C 10.921875 -9.09375 8.4375 -12.585938 6.625 -16.796875 C 4.8125 -21.003906 3.90625 -25.925781 3.90625 -31.5625 C 3.90625 -37.113281 4.8125 -41.890625 6.625 -45.890625 C 8.4375 -49.890625 10.816406 -53.171875 13.765625 -55.734375 C 16.710938 -58.304688 20.078125 -60.203125 23.859375 -61.421875 C 27.648438 -62.640625 31.519531 -63.25 35.46875 -63.25 C 39.9375 -63.25 44 -62.578125 47.65625 -61.234375 C 51.320312 -59.890625 54.476562 -58.035156 57.125 -55.671875 C 59.78125 -53.316406 61.84375 -50.5 63.3125 -47.21875 C 64.789062 -43.9375 65.53125 -40.359375 65.53125 -36.484375 C 65.53125 -33.617188 64.726562 -31.429688 63.125 -29.921875 C 61.519531 -28.410156 59.289062 -27.441406 56.4375 -27.015625 L 25.25 -22.34375 C 26.175781 -19.570312 28.066406 -17.488281 30.921875 -16.09375 C 33.785156 -14.707031 37.070312 -14.015625 40.78125 -14.015625 C 44.226562 -14.015625 47.488281 -14.457031 50.5625 -15.34375 C 53.632812 -16.226562 56.140625 -17.257812 58.078125 -18.4375 C 59.421875 -17.59375 60.554688 -16.410156 61.484375 -14.890625 C 62.410156 -13.378906 62.875 -11.78125 62.875 -10.09375 C 62.875 -6.3125 61.101562 -3.492188 57.5625 -1.640625 C 54.875 -0.210938 51.847656 0.75 48.484375 1.25 C 45.117188 1.757812 41.960938 2.015625 39.015625 2.015625 Z M 35.46875 -47.59375 C 33.457031 -47.59375 31.710938 -47.253906 30.234375 -46.578125 C 28.765625 -45.910156 27.566406 -45.050781 26.640625 -44 C 25.710938 -42.945312 25.015625 -41.765625 24.546875 -40.453125 C 24.085938 -39.148438 23.816406 -37.828125 23.734375 -36.484375 L 45.328125 -40.015625 C 45.066406 -41.703125 44.132812 -43.382812 42.53125 -45.0625 C 40.9375 -46.75 38.582031 -47.59375 35.46875 -47.59375 Z M 35.46875 -47.59375 "/></g></g></g><g fill="#ffffff" fill-opacity="1"><g transform="translate(348.256833, 130.572023)"><g><path d="M 3.90625 -30.671875 C 3.90625 -36.234375 4.75 -41.050781 6.4375 -45.125 C 8.125 -49.207031 10.457031 -52.597656 13.4375 -55.296875 C 16.425781 -57.992188 19.921875 -59.992188 23.921875 -61.296875 C 27.921875 -62.597656 32.234375 -63.25 36.859375 -63.25 C 38.546875 -63.25 40.1875 -63.101562 41.78125 -62.8125 C 43.382812 -62.519531 44.691406 -62.160156 45.703125 -61.734375 L 45.703125 -82.1875 C 46.546875 -82.4375 47.890625 -82.707031 49.734375 -83 C 51.585938 -83.300781 53.484375 -83.453125 55.421875 -83.453125 C 57.273438 -83.453125 58.9375 -83.320312 60.40625 -83.0625 C 61.882812 -82.8125 63.128906 -82.304688 64.140625 -81.546875 C 65.148438 -80.796875 65.90625 -79.765625 66.40625 -78.453125 C 66.914062 -77.148438 67.171875 -75.445312 67.171875 -73.34375 L 67.171875 -13.515625 C 67.171875 -9.554688 65.316406 -6.398438 61.609375 -4.046875 C 59.171875 -2.441406 56.015625 -1.03125 52.140625 0.1875 C 48.265625 1.40625 43.804688 2.015625 38.765625 2.015625 C 33.285156 2.015625 28.378906 1.257812 24.046875 -0.25 C 19.710938 -1.769531 16.050781 -3.957031 13.0625 -6.8125 C 10.070312 -9.675781 7.796875 -13.109375 6.234375 -17.109375 C 4.679688 -21.109375 3.90625 -25.628906 3.90625 -30.671875 Z M 39.765625 -46.453125 C 35.222656 -46.453125 31.726562 -45.144531 29.28125 -42.53125 C 26.84375 -39.925781 25.625 -35.972656 25.625 -30.671875 C 25.625 -25.453125 26.757812 -21.515625 29.03125 -18.859375 C 31.3125 -16.210938 34.597656 -14.890625 38.890625 -14.890625 C 40.398438 -14.890625 41.765625 -15.117188 42.984375 -15.578125 C 44.203125 -16.046875 45.148438 -16.578125 45.828125 -17.171875 L 45.828125 -44.9375 C 44.140625 -45.945312 42.117188 -46.453125 39.765625 -46.453125 Z M 39.765625 -46.453125 "/></g></g></g><g fill="#ffffff" fill-opacity="1"><g transform="translate(422.194141, 130.572023)"><g><path d="M 70.0625 -30.671875 C 70.0625 -25.453125 69.257812 -20.800781 67.65625 -16.71875 C 66.0625 -12.644531 63.8125 -9.21875 60.90625 -6.4375 C 58.007812 -3.65625 54.539062 -1.550781 50.5 -0.125 C 46.457031 1.300781 41.953125 2.015625 36.984375 2.015625 C 32.023438 2.015625 27.523438 1.257812 23.484375 -0.25 C 19.441406 -1.769531 15.96875 -3.9375 13.0625 -6.75 C 10.164062 -9.570312 7.914062 -13.003906 6.3125 -17.046875 C 4.707031 -21.085938 3.90625 -25.628906 3.90625 -30.671875 C 3.90625 -35.640625 4.707031 -40.144531 6.3125 -44.1875 C 7.914062 -48.226562 10.164062 -51.65625 13.0625 -54.46875 C 15.96875 -57.289062 19.441406 -59.457031 23.484375 -60.96875 C 27.523438 -62.488281 32.023438 -63.25 36.984375 -63.25 C 41.953125 -63.25 46.457031 -62.46875 50.5 -60.90625 C 54.539062 -59.351562 58.007812 -57.164062 60.90625 -54.34375 C 63.8125 -51.53125 66.0625 -48.101562 67.65625 -44.0625 C 69.257812 -40.019531 70.0625 -35.554688 70.0625 -30.671875 Z M 25.875 -30.671875 C 25.875 -25.546875 26.863281 -21.613281 28.84375 -18.875 C 30.820312 -16.132812 33.582031 -14.765625 37.125 -14.765625 C 40.65625 -14.765625 43.363281 -16.15625 45.25 -18.9375 C 47.144531 -21.71875 48.09375 -25.628906 48.09375 -30.671875 C 48.09375 -35.722656 47.125 -39.613281 45.1875 -42.34375 C 43.257812 -45.082031 40.523438 -46.453125 36.984375 -46.453125 C 33.453125 -46.453125 30.71875 -45.082031 28.78125 -42.34375 C 26.84375 -39.613281 25.875 -35.722656 25.875 -30.671875 Z M 25.875 -30.671875 "/></g></g></g><g fill="#ffffff" fill-opacity="1"><g transform="translate(494.490151, 130.572023)"><g><path d="M 47.59375 -1.640625 C 46.414062 -0.710938 44.691406 0.0390625 42.421875 0.625 C 40.148438 1.21875 37.582031 1.515625 34.71875 1.515625 C 31.4375 1.515625 28.59375 1.09375 26.1875 0.25 C 23.789062 -0.59375 22.128906 -1.9375 21.203125 -3.78125 C 20.453125 -5.21875 19.550781 -7.21875 18.5 -9.78125 C 17.445312 -12.351562 16.328125 -15.21875 15.140625 -18.375 C 13.960938 -21.53125 12.742188 -24.914062 11.484375 -28.53125 C 10.222656 -32.15625 9.023438 -35.734375 7.890625 -39.265625 C 6.753906 -42.796875 5.722656 -46.203125 4.796875 -49.484375 C 3.867188 -52.765625 3.113281 -55.671875 2.53125 -58.203125 C 3.707031 -59.378906 5.28125 -60.410156 7.25 -61.296875 C 9.226562 -62.179688 11.398438 -62.625 13.765625 -62.625 C 16.710938 -62.625 19.128906 -62.007812 21.015625 -60.78125 C 22.910156 -59.5625 24.320312 -57.269531 25.25 -53.90625 L 30.171875 -34.59375 C 31.097656 -30.800781 31.984375 -27.367188 32.828125 -24.296875 C 33.671875 -21.222656 34.300781 -18.847656 34.71875 -17.171875 L 35.34375 -17.171875 C 36.945312 -23.398438 38.628906 -30.300781 40.390625 -37.875 C 42.160156 -45.445312 43.765625 -52.894531 45.203125 -60.21875 C 46.628906 -60.976562 48.242188 -61.566406 50.046875 -61.984375 C 51.859375 -62.410156 53.609375 -62.625 55.296875 -62.625 C 58.242188 -62.625 60.726562 -61.988281 62.75 -60.71875 C 64.769531 -59.457031 65.78125 -57.269531 65.78125 -54.15625 C 65.78125 -52.8125 65.460938 -50.851562 64.828125 -48.28125 C 64.191406 -45.71875 63.390625 -42.816406 62.421875 -39.578125 C 61.460938 -36.335938 60.328125 -32.90625 59.015625 -29.28125 C 57.710938 -25.664062 56.390625 -22.132812 55.046875 -18.6875 C 53.703125 -15.238281 52.375 -12.019531 51.0625 -9.03125 C 49.757812 -6.039062 48.601562 -3.578125 47.59375 -1.640625 Z M 47.59375 -1.640625 "/></g></g></g><g fill="#ffffff" fill-opacity="1"><g transform="translate(562.623158, 130.572023)"><g><path d="M 39.015625 2.015625 C 34.046875 2.015625 29.4375 1.320312 25.1875 -0.0625 C 20.9375 -1.445312 17.234375 -3.53125 14.078125 -6.3125 C 10.921875 -9.09375 8.4375 -12.585938 6.625 -16.796875 C 4.8125 -21.003906 3.90625 -25.925781 3.90625 -31.5625 C 3.90625 -37.113281 4.8125 -41.890625 6.625 -45.890625 C 8.4375 -49.890625 10.816406 -53.171875 13.765625 -55.734375 C 16.710938 -58.304688 20.078125 -60.203125 23.859375 -61.421875 C 27.648438 -62.640625 31.519531 -63.25 35.46875 -63.25 C 39.9375 -63.25 44 -62.578125 47.65625 -61.234375 C 51.320312 -59.890625 54.476562 -58.035156 57.125 -55.671875 C 59.78125 -53.316406 61.84375 -50.5 63.3125 -47.21875 C 64.789062 -43.9375 65.53125 -40.359375 65.53125 -36.484375 C 65.53125 -33.617188 64.726562 -31.429688 63.125 -29.921875 C 61.519531 -28.410156 59.289062 -27.441406 56.4375 -27.015625 L 25.25 -22.34375 C 26.175781 -19.570312 28.066406 -17.488281 30.921875 -16.09375 C 33.785156 -14.707031 37.070312 -14.015625 40.78125 -14.015625 C 44.226562 -14.015625 47.488281 -14.457031 50.5625 -15.34375 C 53.632812 -16.226562 56.140625 -17.257812 58.078125 -18.4375 C 59.421875 -17.59375 60.554688 -16.410156 61.484375 -14.890625 C 62.410156 -13.378906 62.875 -11.78125 62.875 -10.09375 C 62.875 -6.3125 61.101562 -3.492188 57.5625 -1.640625 C 54.875 -0.210938 51.847656 0.75 48.484375 1.25 C 45.117188 1.757812 41.960938 2.015625 39.015625 2.015625 Z M 35.46875 -47.59375 C 33.457031 -47.59375 31.710938 -47.253906 30.234375 -46.578125 C 28.765625 -45.910156 27.566406 -45.050781 26.640625 -44 C 25.710938 -42.945312 25.015625 -41.765625 24.546875 -40.453125 C 24.085938 -39.148438 23.816406 -37.828125 23.734375 -36.484375 L 45.328125 -40.015625 C 45.066406 -41.703125 44.132812 -43.382812 42.53125 -45.0625 C 40.9375 -46.75 38.582031 -47.59375 35.46875 -47.59375 Z M 35.46875 -47.59375 "/></g></g></g><g fill="#ffffff" fill-opacity="1"><g transform="translate(631.892144, 130.572023)"><g/></g></g><g fill="#ffffff" fill-opacity="1"><g transform="translate(657.126792, 130.572023)"><g><path d="M 47.21875 -61.109375 C 40.738281 -61.109375 35.769531 -59.128906 32.3125 -55.171875 C 28.863281 -51.210938 27.140625 -45.613281 27.140625 -38.375 C 27.140625 -31.050781 29.050781 -25.410156 32.875 -21.453125 C 36.707031 -17.503906 41.867188 -15.53125 48.359375 -15.53125 C 51.804688 -15.53125 54.726562 -15.992188 57.125 -16.921875 C 59.519531 -17.847656 61.816406 -18.898438 64.015625 -20.078125 C 65.441406 -18.898438 66.550781 -17.488281 67.34375 -15.84375 C 68.144531 -14.195312 68.546875 -12.28125 68.546875 -10.09375 C 68.546875 -6.644531 66.628906 -3.722656 62.796875 -1.328125 C 58.972656 1.066406 53.148438 2.265625 45.328125 2.265625 C 39.679688 2.265625 34.375 1.46875 29.40625 -0.125 C 24.445312 -1.726562 20.113281 -4.191406 16.40625 -7.515625 C 12.707031 -10.835938 9.785156 -15.046875 7.640625 -20.140625 C 5.492188 -25.234375 4.421875 -31.3125 4.421875 -38.375 C 4.421875 -44.945312 5.453125 -50.734375 7.515625 -55.734375 C 9.578125 -60.742188 12.394531 -64.972656 15.96875 -68.421875 C 19.550781 -71.878906 23.738281 -74.488281 28.53125 -76.25 C 33.332031 -78.019531 38.46875 -78.90625 43.9375 -78.90625 C 51.675781 -78.90625 57.671875 -77.640625 61.921875 -75.109375 C 66.171875 -72.585938 68.296875 -69.347656 68.296875 -65.390625 C 68.296875 -63.203125 67.75 -61.304688 66.65625 -59.703125 C 65.5625 -58.109375 64.300781 -56.847656 62.875 -55.921875 C 60.6875 -57.359375 58.347656 -58.582031 55.859375 -59.59375 C 53.378906 -60.601562 50.5 -61.109375 47.21875 -61.109375 Z M 47.21875 -61.109375 "/></g></g></g><g fill="#ffffff" fill-opacity="1"><g transform="translate(729.171466, 130.572023)"><g><path d="M 28.40625 -0.125 C 27.476562 0.0390625 26.109375 0.269531 24.296875 0.5625 C 22.492188 0.863281 20.664062 1.015625 18.8125 1.015625 C 16.957031 1.015625 15.289062 0.882812 13.8125 0.625 C 12.34375 0.375 11.101562 -0.125 10.09375 -0.875 C 9.082031 -1.632812 8.300781 -2.664062 7.75 -3.96875 C 7.207031 -5.28125 6.9375 -6.988281 6.9375 -9.09375 L 6.9375 -82.3125 C 7.863281 -82.476562 9.234375 -82.707031 11.046875 -83 C 12.859375 -83.300781 14.6875 -83.453125 16.53125 -83.453125 C 18.382812 -83.453125 20.046875 -83.320312 21.515625 -83.0625 C 22.992188 -82.8125 24.238281 -82.304688 25.25 -81.546875 C 26.257812 -80.796875 27.035156 -79.765625 27.578125 -78.453125 C 28.128906 -77.148438 28.40625 -75.445312 28.40625 -73.34375 Z M 28.40625 -0.125 "/></g></g></g><g fill="#ffffff" fill-opacity="1"><g transform="translate(764.499947, 130.572023)"><g><path d="M 70.0625 -30.671875 C 70.0625 -25.453125 69.257812 -20.800781 67.65625 -16.71875 C 66.0625 -12.644531 63.8125 -9.21875 60.90625 -6.4375 C 58.007812 -3.65625 54.539062 -1.550781 50.5 -0.125 C 46.457031 1.300781 41.953125 2.015625 36.984375 2.015625 C 32.023438 2.015625 27.523438 1.257812 23.484375 -0.25 C 19.441406 -1.769531 15.96875 -3.9375 13.0625 -6.75 C 10.164062 -9.570312 7.914062 -13.003906 6.3125 -17.046875 C 4.707031 -21.085938 3.90625 -25.628906 3.90625 -30.671875 C 3.90625 -35.640625 4.707031 -40.144531 6.3125 -44.1875 C 7.914062 -48.226562 10.164062 -51.65625 13.0625 -54.46875 C 15.96875 -57.289062 19.441406 -59.457031 23.484375 -60.96875 C 27.523438 -62.488281 32.023438 -63.25 36.984375 -63.25 C 41.953125 -63.25 46.457031 -62.46875 50.5 -60.90625 C 54.539062 -59.351562 58.007812 -57.164062 60.90625 -54.34375 C 63.8125 -51.53125 66.0625 -48.101562 67.65625 -44.0625 C 69.257812 -40.019531 70.0625 -35.554688 70.0625 -30.671875 Z M 25.875 -30.671875 C 25.875 -25.546875 26.863281 -21.613281 28.84375 -18.875 C 30.820312 -16.132812 33.582031 -14.765625 37.125 -14.765625 C 40.65625 -14.765625 43.363281 -16.15625 45.25 -18.9375 C 47.144531 -21.71875 48.09375 -25.628906 48.09375 -30.671875 C 48.09375 -35.722656 47.125 -39.613281 45.1875 -42.34375 C 43.257812 -45.082031 40.523438 -46.453125 36.984375 -46.453125 C 33.453125 -46.453125 30.71875 -45.082031 28.78125 -42.34375 C 26.84375 -39.613281 25.875 -35.722656 25.875 -30.671875 Z M 25.875 -30.671875 "/></g></g></g><g fill="#ffffff" fill-opacity="1"><g transform="translate(838.437255, 130.572023)"><g><path d="M 6.5625 -60.46875 C 7.40625 -60.726562 8.726562 -60.984375 10.53125 -61.234375 C 12.34375 -61.484375 14.21875 -61.609375 16.15625 -61.609375 C 18.007812 -61.609375 19.671875 -61.484375 21.140625 -61.234375 C 22.617188 -60.984375 23.863281 -60.476562 24.875 -59.71875 C 25.882812 -58.957031 26.660156 -57.925781 27.203125 -56.625 C 27.753906 -55.320312 28.03125 -53.617188 28.03125 -51.515625 L 28.03125 -24.359375 C 28.03125 -20.910156 28.867188 -18.445312 30.546875 -16.96875 C 32.234375 -15.5 34.675781 -14.765625 37.875 -14.765625 C 39.8125 -14.765625 41.390625 -14.929688 42.609375 -15.265625 C 43.828125 -15.609375 44.773438 -15.945312 45.453125 -16.28125 L 45.453125 -60.46875 C 46.296875 -60.726562 47.617188 -60.984375 49.421875 -61.234375 C 51.234375 -61.484375 53.109375 -61.609375 55.046875 -61.609375 C 56.898438 -61.609375 58.5625 -61.484375 60.03125 -61.234375 C 61.5 -60.984375 62.738281 -60.476562 63.75 -59.71875 C 64.757812 -58.957031 65.535156 -57.925781 66.078125 -56.625 C 66.628906 -55.320312 66.90625 -53.617188 66.90625 -51.515625 L 66.90625 -13.125 C 66.90625 -8.914062 65.140625 -5.757812 61.609375 -3.65625 C 58.660156 -1.8125 55.144531 -0.40625 51.0625 0.5625 C 46.976562 1.53125 42.539062 2.015625 37.75 2.015625 C 33.207031 2.015625 29.019531 1.507812 25.1875 0.5 C 21.351562 -0.507812 18.046875 -2.066406 15.265625 -4.171875 C 12.492188 -6.273438 10.347656 -8.988281 8.828125 -12.3125 C 7.316406 -15.632812 6.5625 -19.648438 6.5625 -24.359375 Z M 6.5625 -60.46875 "/></g></g></g><g fill="#ffffff" fill-opacity="1"><g transform="translate(911.869906, 130.572023)"><g><path d="M 3.90625 -30.671875 C 3.90625 -36.234375 4.75 -41.050781 6.4375 -45.125 C 8.125 -49.207031 10.457031 -52.597656 13.4375 -55.296875 C 16.425781 -57.992188 19.921875 -59.992188 23.921875 -61.296875 C 27.921875 -62.597656 32.234375 -63.25 36.859375 -63.25 C 38.546875 -63.25 40.1875 -63.101562 41.78125 -62.8125 C 43.382812 -62.519531 44.691406 -62.160156 45.703125 -61.734375 L 45.703125 -82.1875 C 46.546875 -82.4375 47.890625 -82.707031 49.734375 -83 C 51.585938 -83.300781 53.484375 -83.453125 55.421875 -83.453125 C 57.273438 -83.453125 58.9375 -83.320312 60.40625 -83.0625 C 61.882812 -82.8125 63.128906 -82.304688 64.140625 -81.546875 C 65.148438 -80.796875 65.90625 -79.765625 66.40625 -78.453125 C 66.914062 -77.148438 67.171875 -75.445312 67.171875 -73.34375 L 67.171875 -13.515625 C 67.171875 -9.554688 65.316406 -6.398438 61.609375 -4.046875 C 59.171875 -2.441406 56.015625 -1.03125 52.140625 0.1875 C 48.265625 1.40625 43.804688 2.015625 38.765625 2.015625 C 33.285156 2.015625 28.378906 1.257812 24.046875 -0.25 C 19.710938 -1.769531 16.050781 -3.957031 13.0625 -6.8125 C 10.070312 -9.675781 7.796875 -13.109375 6.234375 -17.109375 C 4.679688 -21.109375 3.90625 -25.628906 3.90625 -30.671875 Z M 39.765625 -46.453125 C 35.222656 -46.453125 31.726562 -45.144531 29.28125 -42.53125 C 26.84375 -39.925781 25.625 -35.972656 25.625 -30.671875 C 25.625 -25.453125 26.757812 -21.515625 29.03125 -18.859375 C 31.3125 -16.210938 34.597656 -14.890625 38.890625 -14.890625 C 40.398438 -14.890625 41.765625 -15.117188 42.984375 -15.578125 C 44.203125 -16.046875 45.148438 -16.578125 45.828125 -17.171875 L 45.828125 -44.9375 C 44.140625 -45.945312 42.117188 -46.453125 39.765625 -46.453125 Z M 39.765625 -46.453125 "/></g></g></g><g fill="#ffffff" fill-opacity="1"><g transform="translate(0.904575, 304.23073)"><g><path d="M 29.921875 -30.421875 C 26.210938 -31.679688 22.84375 -32.960938 19.8125 -34.265625 C 16.789062 -35.578125 14.1875 -37.15625 12 -39 C 9.8125 -40.851562 8.101562 -43.0625 6.875 -45.625 C 5.65625 -48.195312 5.046875 -51.335938 5.046875 -55.046875 C 5.046875 -62.203125 7.800781 -67.925781 13.3125 -72.21875 C 18.832031 -76.507812 26.554688 -78.65625 36.484375 -78.65625 C 40.109375 -78.65625 43.472656 -78.398438 46.578125 -77.890625 C 49.691406 -77.390625 52.363281 -76.613281 54.59375 -75.5625 C 56.832031 -74.507812 58.582031 -73.160156 59.84375 -71.515625 C 61.101562 -69.878906 61.734375 -67.96875 61.734375 -65.78125 C 61.734375 -63.59375 61.226562 -61.71875 60.21875 -60.15625 C 59.207031 -58.601562 57.988281 -57.28125 56.5625 -56.1875 C 54.707031 -57.363281 52.222656 -58.390625 49.109375 -59.265625 C 45.992188 -60.148438 42.585938 -60.59375 38.890625 -60.59375 C 35.097656 -60.59375 32.316406 -60.066406 30.546875 -59.015625 C 28.785156 -57.960938 27.90625 -56.640625 27.90625 -55.046875 C 27.90625 -53.785156 28.453125 -52.753906 29.546875 -51.953125 C 30.640625 -51.148438 32.28125 -50.414062 34.46875 -49.75 L 41.15625 -47.59375 C 49.070312 -45.070312 55.15625 -41.851562 59.40625 -37.9375 C 63.65625 -34.019531 65.78125 -28.695312 65.78125 -21.96875 C 65.78125 -14.8125 62.957031 -9.023438 57.3125 -4.609375 C 51.675781 -0.191406 43.390625 2.015625 32.453125 2.015625 C 28.578125 2.015625 24.976562 1.695312 21.65625 1.0625 C 18.332031 0.4375 15.425781 -0.484375 12.9375 -1.703125 C 10.457031 -2.921875 8.519531 -4.4375 7.125 -6.25 C 5.738281 -8.0625 5.046875 -10.144531 5.046875 -12.5 C 5.046875 -14.9375 5.757812 -17.019531 7.1875 -18.75 C 8.625 -20.476562 10.1875 -21.800781 11.875 -22.71875 C 14.226562 -20.875 17.109375 -19.273438 20.515625 -17.921875 C 23.921875 -16.578125 27.644531 -15.90625 31.6875 -15.90625 C 35.8125 -15.90625 38.710938 -16.535156 40.390625 -17.796875 C 42.078125 -19.054688 42.921875 -20.53125 42.921875 -22.21875 C 42.921875 -23.90625 42.25 -25.1875 40.90625 -26.0625 C 39.5625 -26.945312 37.664062 -27.8125 35.21875 -28.65625 Z M 29.921875 -30.421875 "/></g></g></g><g fill="#ffffff" fill-opacity="1"><g transform="translate(70.678352, 304.23073)"><g><path d="M 70.0625 -30.671875 C 70.0625 -25.453125 69.257812 -20.800781 67.65625 -16.71875 C 66.0625 -12.644531 63.8125 -9.21875 60.90625 -6.4375 C 58.007812 -3.65625 54.539062 -1.550781 50.5 -0.125 C 46.457031 1.300781 41.953125 2.015625 36.984375 2.015625 C 32.023438 2.015625 27.523438 1.257812 23.484375 -0.25 C 19.441406 -1.769531 15.96875 -3.9375 13.0625 -6.75 C 10.164062 -9.570312 7.914062 -13.003906 6.3125 -17.046875 C 4.707031 -21.085938 3.90625 -25.628906 3.90625 -30.671875 C 3.90625 -35.640625 4.707031 -40.144531 6.3125 -44.1875 C 7.914062 -48.226562 10.164062 -51.65625 13.0625 -54.46875 C 15.96875 -57.289062 19.441406 -59.457031 23.484375 -60.96875 C 27.523438 -62.488281 32.023438 -63.25 36.984375 -63.25 C 41.953125 -63.25 46.457031 -62.46875 50.5 -60.90625 C 54.539062 -59.351562 58.007812 -57.164062 60.90625 -54.34375 C 63.8125 -51.53125 66.0625 -48.101562 67.65625 -44.0625 C 69.257812 -40.019531 70.0625 -35.554688 70.0625 -30.671875 Z M 25.875 -30.671875 C 25.875 -25.546875 26.863281 -21.613281 28.84375 -18.875 C 30.820312 -16.132812 33.582031 -14.765625 37.125 -14.765625 C 40.65625 -14.765625 43.363281 -16.15625 45.25 -18.9375 C 47.144531 -21.71875 48.09375 -25.628906 48.09375 -30.671875 C 48.09375 -35.722656 47.125 -39.613281 45.1875 -42.34375 C 43.257812 -45.082031 40.523438 -46.453125 36.984375 -46.453125 C 33.453125 -46.453125 30.71875 -45.082031 28.78125 -42.34375 C 26.84375 -39.613281 25.875 -35.722656 25.875 -30.671875 Z M 25.875 -30.671875 "/></g></g></g><g fill="#ffffff" fill-opacity="1"><g transform="translate(144.61566, 304.23073)"><g><path d="M 28.40625 -0.125 C 27.476562 0.0390625 26.109375 0.269531 24.296875 0.5625 C 22.492188 0.863281 20.664062 1.015625 18.8125 1.015625 C 16.957031 1.015625 15.289062 0.882812 13.8125 0.625 C 12.34375 0.375 11.101562 -0.125 10.09375 -0.875 C 9.082031 -1.632812 8.300781 -2.664062 7.75 -3.96875 C 7.207031 -5.28125 6.9375 -6.988281 6.9375 -9.09375 L 6.9375 -82.3125 C 7.863281 -82.476562 9.234375 -82.707031 11.046875 -83 C 12.859375 -83.300781 14.6875 -83.453125 16.53125 -83.453125 C 18.382812 -83.453125 20.046875 -83.320312 21.515625 -83.0625 C 22.992188 -82.8125 24.238281 -82.304688 25.25 -81.546875 C 26.257812 -80.796875 27.035156 -79.765625 27.578125 -78.453125 C 28.128906 -77.148438 28.40625 -75.445312 28.40625 -73.34375 Z M 28.40625 -0.125 "/></g></g></g><g fill="#ffffff" fill-opacity="1"><g transform="translate(179.944142, 304.23073)"><g><path d="M 6.5625 -60.46875 C 7.40625 -60.726562 8.726562 -60.984375 10.53125 -61.234375 C 12.34375 -61.484375 14.21875 -61.609375 16.15625 -61.609375 C 18.007812 -61.609375 19.671875 -61.484375 21.140625 -61.234375 C 22.617188 -60.984375 23.863281 -60.476562 24.875 -59.71875 C 25.882812 -58.957031 26.660156 -57.925781 27.203125 -56.625 C 27.753906 -55.320312 28.03125 -53.617188 28.03125 -51.515625 L 28.03125 -24.359375 C 28.03125 -20.910156 28.867188 -18.445312 30.546875 -16.96875 C 32.234375 -15.5 34.675781 -14.765625 37.875 -14.765625 C 39.8125 -14.765625 41.390625 -14.929688 42.609375 -15.265625 C 43.828125 -15.609375 44.773438 -15.945312 45.453125 -16.28125 L 45.453125 -60.46875 C 46.296875 -60.726562 47.617188 -60.984375 49.421875 -61.234375 C 51.234375 -61.484375 53.109375 -61.609375 55.046875 -61.609375 C 56.898438 -61.609375 58.5625 -61.484375 60.03125 -61.234375 C 61.5 -60.984375 62.738281 -60.476562 63.75 -59.71875 C 64.757812 -58.957031 65.535156 -57.925781 66.078125 -56.625 C 66.628906 -55.320312 66.90625 -53.617188 66.90625 -51.515625 L 66.90625 -13.125 C 66.90625 -8.914062 65.140625 -5.757812 61.609375 -3.65625 C 58.660156 -1.8125 55.144531 -0.40625 51.0625 0.5625 C 46.976562 1.53125 42.539062 2.015625 37.75 2.015625 C 33.207031 2.015625 29.019531 1.507812 25.1875 0.5 C 21.351562 -0.507812 18.046875 -2.066406 15.265625 -4.171875 C 12.492188 -6.273438 10.347656 -8.988281 8.828125 -12.3125 C 7.316406 -15.632812 6.5625 -19.648438 6.5625 -24.359375 Z M 6.5625 -60.46875 "/></g></g></g><g fill="#ffffff" fill-opacity="1"><g transform="translate(253.376792, 304.23073)"><g><path d="M 28.03125 -21.078125 C 28.03125 -18.890625 28.722656 -17.332031 30.109375 -16.40625 C 31.492188 -15.488281 33.453125 -15.03125 35.984375 -15.03125 C 37.242188 -15.03125 38.546875 -15.132812 39.890625 -15.34375 C 41.242188 -15.550781 42.425781 -15.820312 43.4375 -16.15625 C 44.1875 -15.226562 44.832031 -14.195312 45.375 -13.0625 C 45.925781 -11.925781 46.203125 -10.5625 46.203125 -8.96875 C 46.203125 -5.769531 45.003906 -3.160156 42.609375 -1.140625 C 40.210938 0.878906 35.984375 1.890625 29.921875 1.890625 C 22.515625 1.890625 16.8125 0.207031 12.8125 -3.15625 C 8.8125 -6.519531 6.8125 -11.988281 6.8125 -19.5625 L 6.8125 -73.609375 C 7.738281 -73.859375 9.0625 -74.128906 10.78125 -74.421875 C 12.507812 -74.710938 14.34375 -74.859375 16.28125 -74.859375 C 19.988281 -74.859375 22.875 -74.207031 24.9375 -72.90625 C 27 -71.601562 28.03125 -68.847656 28.03125 -64.640625 L 28.03125 -56.5625 L 44.5625 -56.5625 C 45.070312 -55.632812 45.554688 -54.472656 46.015625 -53.078125 C 46.484375 -51.691406 46.71875 -50.160156 46.71875 -48.484375 C 46.71875 -45.535156 46.0625 -43.40625 44.75 -42.09375 C 43.445312 -40.789062 41.703125 -40.140625 39.515625 -40.140625 L 28.03125 -40.140625 Z M 28.03125 -21.078125 "/></g></g></g><g fill="#ffffff" fill-opacity="1"><g transform="translate(303.845956, 304.23073)"><g><path d="M 6.0625 -78.40625 C 6.0625 -81.601562 7.132812 -84.296875 9.28125 -86.484375 C 11.425781 -88.671875 14.265625 -89.765625 17.796875 -89.765625 C 21.335938 -89.765625 24.179688 -88.671875 26.328125 -86.484375 C 28.472656 -84.296875 29.546875 -81.601562 29.546875 -78.40625 C 29.546875 -75.207031 28.472656 -72.507812 26.328125 -70.3125 C 24.179688 -68.125 21.335938 -67.03125 17.796875 -67.03125 C 14.265625 -67.03125 11.425781 -68.125 9.28125 -70.3125 C 7.132812 -72.507812 6.0625 -75.207031 6.0625 -78.40625 Z M 28.53125 -0.125 C 27.601562 0.0390625 26.234375 0.269531 24.421875 0.5625 C 22.617188 0.863281 20.789062 1.015625 18.9375 1.015625 C 17.082031 1.015625 15.414062 0.882812 13.9375 0.625 C 12.46875 0.375 11.226562 -0.125 10.21875 -0.875 C 9.21875 -1.632812 8.441406 -2.664062 7.890625 -3.96875 C 7.335938 -5.28125 7.0625 -6.988281 7.0625 -9.09375 L 7.0625 -60.46875 C 7.988281 -60.632812 9.359375 -60.863281 11.171875 -61.15625 C 12.984375 -61.457031 14.816406 -61.609375 16.671875 -61.609375 C 18.515625 -61.609375 20.171875 -61.484375 21.640625 -61.234375 C 23.117188 -60.984375 24.363281 -60.476562 25.375 -59.71875 C 26.382812 -58.957031 27.160156 -57.925781 27.703125 -56.625 C 28.253906 -55.320312 28.53125 -53.617188 28.53125 -51.515625 Z M 28.53125 -0.125 "/></g></g></g><g fill="#ffffff" fill-opacity="1"><g transform="translate(339.4267, 304.23073)"><g><path d="M 70.0625 -30.671875 C 70.0625 -25.453125 69.257812 -20.800781 67.65625 -16.71875 C 66.0625 -12.644531 63.8125 -9.21875 60.90625 -6.4375 C 58.007812 -3.65625 54.539062 -1.550781 50.5 -0.125 C 46.457031 1.300781 41.953125 2.015625 36.984375 2.015625 C 32.023438 2.015625 27.523438 1.257812 23.484375 -0.25 C 19.441406 -1.769531 15.96875 -3.9375 13.0625 -6.75 C 10.164062 -9.570312 7.914062 -13.003906 6.3125 -17.046875 C 4.707031 -21.085938 3.90625 -25.628906 3.90625 -30.671875 C 3.90625 -35.640625 4.707031 -40.144531 6.3125 -44.1875 C 7.914062 -48.226562 10.164062 -51.65625 13.0625 -54.46875 C 15.96875 -57.289062 19.441406 -59.457031 23.484375 -60.96875 C 27.523438 -62.488281 32.023438 -63.25 36.984375 -63.25 C 41.953125 -63.25 46.457031 -62.46875 50.5 -60.90625 C 54.539062 -59.351562 58.007812 -57.164062 60.90625 -54.34375 C 63.8125 -51.53125 66.0625 -48.101562 67.65625 -44.0625 C 69.257812 -40.019531 70.0625 -35.554688 70.0625 -30.671875 Z M 25.875 -30.671875 C 25.875 -25.546875 26.863281 -21.613281 28.84375 -18.875 C 30.820312 -16.132812 33.582031 -14.765625 37.125 -14.765625 C 40.65625 -14.765625 43.363281 -16.15625 45.25 -18.9375 C 47.144531 -21.71875 48.09375 -25.628906 48.09375 -30.671875 C 48.09375 -35.722656 47.125 -39.613281 45.1875 -42.34375 C 43.257812 -45.082031 40.523438 -46.453125 36.984375 -46.453125 C 33.453125 -46.453125 30.71875 -45.082031 28.78125 -42.34375 C 26.84375 -39.613281 25.875 -35.722656 25.875 -30.671875 Z M 25.875 -30.671875 "/></g></g></g><g fill="#ffffff" fill-opacity="1"><g transform="translate(413.364009, 304.23073)"><g><path d="M 45.453125 -38.890625 C 45.453125 -41.492188 44.710938 -43.40625 43.234375 -44.625 C 41.765625 -45.84375 39.769531 -46.453125 37.25 -46.453125 C 35.5625 -46.453125 33.894531 -46.242188 32.25 -45.828125 C 30.613281 -45.410156 29.207031 -44.78125 28.03125 -43.9375 L 28.03125 -0.125 C 27.1875 0.125 25.859375 0.375 24.046875 0.625 C 22.242188 0.882812 20.375 1.015625 18.4375 1.015625 C 16.582031 1.015625 14.914062 0.882812 13.4375 0.625 C 11.96875 0.375 10.726562 -0.125 9.71875 -0.875 C 8.707031 -1.632812 7.925781 -2.664062 7.375 -3.96875 C 6.832031 -5.28125 6.5625 -6.988281 6.5625 -9.09375 L 6.5625 -46.96875 C 6.5625 -49.238281 7.046875 -51.085938 8.015625 -52.515625 C 8.984375 -53.953125 10.3125 -55.257812 12 -56.4375 C 14.851562 -58.457031 18.445312 -60.097656 22.78125 -61.359375 C 27.125 -62.617188 31.945312 -63.25 37.25 -63.25 C 46.757812 -63.25 54.078125 -61.164062 59.203125 -57 C 64.335938 -52.832031 66.90625 -47.046875 66.90625 -39.640625 L 66.90625 -0.125 C 66.070312 0.125 64.75 0.375 62.9375 0.625 C 61.125 0.882812 59.25 1.015625 57.3125 1.015625 C 55.46875 1.015625 53.804688 0.882812 52.328125 0.625 C 50.859375 0.375 49.617188 -0.125 48.609375 -0.875 C 47.597656 -1.632812 46.816406 -2.664062 46.265625 -3.96875 C 45.722656 -5.28125 45.453125 -6.988281 45.453125 -9.09375 Z M 45.453125 -38.890625 "/></g></g></g><g fill="#ffffff" fill-opacity="1"><g transform="translate(486.922791, 304.23073)"><g><path d="M 58.328125 -18.3125 C 58.328125 -11.914062 55.925781 -6.90625 51.125 -3.28125 C 46.332031 0.332031 39.265625 2.140625 29.921875 2.140625 C 26.390625 2.140625 23.109375 1.882812 20.078125 1.375 C 17.046875 0.875 14.457031 0.0976562 12.3125 -0.953125 C 10.164062 -2.003906 8.476562 -3.328125 7.25 -4.921875 C 6.03125 -6.523438 5.421875 -8.421875 5.421875 -10.609375 C 5.421875 -12.628906 5.84375 -14.332031 6.6875 -15.71875 C 7.53125 -17.101562 8.539062 -18.257812 9.71875 -19.1875 C 12.15625 -17.84375 14.953125 -16.644531 18.109375 -15.59375 C 21.265625 -14.539062 24.90625 -14.015625 29.03125 -14.015625 C 31.644531 -14.015625 33.644531 -14.390625 35.03125 -15.140625 C 36.425781 -15.898438 37.125 -16.914062 37.125 -18.1875 C 37.125 -19.363281 36.617188 -20.285156 35.609375 -20.953125 C 34.597656 -21.628906 32.910156 -22.175781 30.546875 -22.59375 L 26.765625 -23.359375 C 19.441406 -24.785156 13.988281 -27.035156 10.40625 -30.109375 C 6.832031 -33.179688 5.046875 -37.578125 5.046875 -43.296875 C 5.046875 -46.410156 5.71875 -49.226562 7.0625 -51.75 C 8.414062 -54.28125 10.3125 -56.382812 12.75 -58.0625 C 15.1875 -59.75 18.109375 -61.054688 21.515625 -61.984375 C 24.929688 -62.910156 28.703125 -63.375 32.828125 -63.375 C 35.941406 -63.375 38.863281 -63.140625 41.59375 -62.671875 C 44.332031 -62.210938 46.710938 -61.519531 48.734375 -60.59375 C 50.753906 -59.675781 52.351562 -58.476562 53.53125 -57 C 54.707031 -55.53125 55.296875 -53.785156 55.296875 -51.765625 C 55.296875 -49.828125 54.9375 -48.160156 54.21875 -46.765625 C 53.507812 -45.378906 52.609375 -44.222656 51.515625 -43.296875 C 50.835938 -43.722656 49.820312 -44.164062 48.46875 -44.625 C 47.125 -45.09375 45.648438 -45.515625 44.046875 -45.890625 C 42.453125 -46.265625 40.832031 -46.578125 39.1875 -46.828125 C 37.550781 -47.085938 36.0625 -47.21875 34.71875 -47.21875 C 31.9375 -47.21875 29.785156 -46.898438 28.265625 -46.265625 C 26.753906 -45.640625 26 -44.648438 26 -43.296875 C 26 -42.378906 26.421875 -41.625 27.265625 -41.03125 C 28.109375 -40.4375 29.707031 -39.890625 32.0625 -39.390625 L 35.984375 -38.5 C 44.054688 -36.65625 49.796875 -34.109375 53.203125 -30.859375 C 56.617188 -27.617188 58.328125 -23.4375 58.328125 -18.3125 Z M 58.328125 -18.3125 "/></g></g></g></g></g><path fill="#ffffff" d="M 154.808594 95.257812 C 158.15625 98.734375 161.503906 101.402344 164.296875 103.359375 C 137.855469 135.707031 121.019531 176.15625 118.054688 220.34375 C 111.808594 229.484375 107.546875 239.835938 105.980469 250.90625 C 105.917969 251.058594 105.828125 251.214844 105.796875 251.402344 C 105.335938 245.695312 105.0625 239.957031 105.070312 234.128906 C 105.128906 181.472656 123.800781 133.117188 154.808594 95.257812 " fill-opacity="1" fill-rule="nonzero"/><path fill="#ffffff" d="M 545.320312 234.617188 C 545.316406 238.617188 545.15625 242.585938 544.933594 246.523438 C 542.214844 237.15625 537.941406 228.40625 532.398438 220.679688 C 525.320312 112.691406 435.273438 26.910156 325.425781 26.789062 C 295.203125 26.753906 266.496094 33.203125 240.570312 44.835938 L 226.988281 37.53125 C 256.640625 22.679688 290.066406 14.34375 325.441406 14.382812 C 446.796875 14.519531 545.457031 113.335938 545.320312 234.617188 " fill-opacity="1" fill-rule="nonzero"/><path fill="#ffffff" d="M 323.667969 383.300781 C 319.917969 383.296875 316.847656 380.253906 316.851562 376.472656 C 316.855469 372.71875 319.929688 369.652344 323.683594 369.65625 C 327.441406 369.660156 330.507812 372.734375 330.503906 376.488281 C 330.5 380.269531 327.425781 383.304688 323.667969 383.300781 M 328.347656 363.613281 C 326.890625 363.054688 325.339844 362.773438 323.691406 362.773438 C 322.046875 362.769531 320.496094 363.046875 319.039062 363.601562 C 313.761719 365.488281 309.96875 370.539062 309.964844 376.464844 C 309.953125 384.03125 316.089844 390.207031 323.664062 390.214844 C 331.234375 390.226562 337.386719 384.058594 337.394531 376.492188 C 337.398438 370.570312 333.621094 365.511719 328.347656 363.613281 " fill-opacity="1" fill-rule="nonzero"/><path fill="#ffffff" d="M 373.402344 420.507812 C 369.644531 420.503906 366.578125 417.429688 366.582031 413.648438 C 366.585938 409.894531 369.660156 406.828125 373.417969 406.832031 C 377.171875 406.835938 380.238281 409.910156 380.234375 413.660156 C 380.230469 417.445312 377.15625 420.511719 373.402344 420.507812 M 378.078125 400.789062 C 376.621094 400.230469 375.066406 399.949219 373.425781 399.945312 C 371.78125 399.945312 370.226562 400.222656 368.769531 400.777344 C 363.492188 402.664062 359.699219 407.714844 359.691406 413.636719 C 359.6875 421.203125 365.824219 427.382812 373.394531 427.390625 C 380.964844 427.402344 387.113281 421.234375 387.125 413.667969 C 387.128906 407.746094 383.351562 402.6875 378.078125 400.789062 " fill-opacity="1" fill-rule="nonzero"/><path fill="#ffffff" d="M 139.65625 11.085938 C 139.046875 10.796875 138.359375 11.105469 138.492188 11.761719 C 138.929688 13.90625 139.574219 16.011719 140.324219 18.0625 C 141.707031 21.835938 143.5 25.472656 145.550781 28.921875 C 146.886719 31.175781 148.261719 33.402344 149.808594 35.515625 C 151.152344 37.347656 152.960938 38.933594 153.875 41.042969 C 155.007812 43.664062 155.019531 46.859375 155.125 49.671875 C 155.238281 52.648438 155.289062 55.65625 155.894531 58.585938 C 156.230469 60.246094 156.660156 61.929688 157.148438 63.53125 C 157.492188 64.664062 157.929688 65.742188 158.40625 66.828125 C 159.003906 68.203125 159.679688 69.507812 160.4375 70.800781 C 162.929688 75.066406 166.226562 78.890625 169.828125 82.25 C 171.160156 83.488281 172.480469 84.699219 173.898438 85.839844 C 175.078125 86.78125 176.390625 87.601562 177.484375 88.652344 C 179.605469 90.707031 181.046875 93.347656 181.742188 96.214844 C 182.457031 99.449219 183.070312 102.875 184.445312 105.910156 C 186.480469 110.390625 190.28125 113.988281 194.128906 116.96875 C 198.136719 120.066406 202.535156 121.9375 206.921875 124.347656 C 209.335938 125.675781 211.117188 128.246094 212.152344 130.75 C 212.257812 131.011719 212.417969 131.265625 212.539062 131.523438 C 213.019531 132.578125 213.558594 133.65625 214.183594 134.628906 C 217.988281 140.546875 223.972656 144.550781 230.265625 147.4375 C 233.539062 148.9375 236.871094 149.972656 239.957031 151.90625 C 242.734375 153.640625 245.460938 155.621094 247.707031 158.019531 C 249.683594 160.128906 250.730469 162.597656 253.230469 164.226562 C 255.070312 165.425781 257.058594 166.351562 259.140625 167.042969 C 263.566406 168.511719 268.269531 168.992188 272.808594 169.96875 C 277.375 170.945312 281.757812 172.738281 286.382812 173.472656 C 289.921875 174.03125 293.675781 174.058594 297.242188 173.871094 C 300.375 173.703125 303.460938 173.144531 306.359375 171.941406 C 312.644531 169.332031 318.074219 165.003906 322.46875 159.847656 C 323.507812 158.625 324.253906 159.359375 323.535156 160.914062 C 321.804688 164.644531 319.582031 168.113281 316.832031 171.179688 C 313.3125 175.101562 308.84375 178.214844 303.828125 179.886719 C 300.347656 181.042969 296.699219 181.339844 293.0625 181.617188 C 288.464844 181.972656 283.816406 181.96875 279.292969 180.925781 C 278.160156 180.664062 276.476562 181.117188 275.609375 181.890625 C 273.53125 183.738281 270.246094 185.632812 268.234375 187.40625 C 259.019531 195.5 253.695312 198.789062 241.738281 206.371094 C 238.117188 208.667969 234.257812 210.625 230.289062 212.269531 C 223.566406 215.066406 217.425781 217.558594 210.308594 218.449219 C 203.515625 219.296875 197.148438 220.460938 190.328125 221.042969 C 187.792969 221.257812 184.046875 221.4375 181.503906 221.613281 C 177.644531 221.890625 173.976562 221.730469 170.160156 222.472656 C 167.519531 222.988281 164.789062 224.667969 162.589844 226.246094 C 160.730469 227.582031 157.925781 230.390625 158.609375 232.925781 C 158.796875 233.628906 159.222656 234.328125 159.574219 234.960938 C 161.980469 239.320312 163.621094 244.222656 163.824219 249.214844 C 163.914062 251.34375 163.640625 253.519531 164.207031 255.609375 C 165.304688 259.652344 168.007812 262.820312 171.664062 264.824219 C 173.21875 265.679688 174.867188 266.425781 176.605469 266.769531 C 178.800781 267.191406 180.804688 267.925781 182.519531 269.390625 C 184.074219 270.726562 185.265625 272.414062 186.488281 274.046875 C 188.082031 276.175781 189.445312 278.433594 190.359375 280.929688 C 191.566406 284.246094 192.402344 287.730469 194.90625 290.335938 C 194.957031 290.390625 194.953125 290.382812 195.003906 290.433594 C 197.460938 292.90625 200.886719 294.136719 204.308594 294.417969 C 207.769531 294.613281 211.132812 294.039062 214.585938 293.945312 C 216.742188 293.863281 218.972656 294.1875 221.082031 294.628906 C 223.492188 295.132812 225.707031 296.160156 227.675781 297.640625 C 230.484375 299.753906 233.613281 301.34375 237.171875 301.527344 C 240.875 301.71875 244.652344 300.945312 248.132812 299.699219 C 250.449219 298.871094 252.554688 297.597656 254.4375 296.023438 C 259.726562 291.589844 265.746094 286.734375 269.679688 281.117188 C 274.792969 273.8125 278.6875 267.410156 283.179688 259.714844 C 285.570312 255.625 286.972656 252.800781 289.300781 248.675781 C 290.574219 246.429688 291.847656 244.148438 293.09375 241.894531 C 294.140625 240 294.851562 238.617188 296.78125 237.539062 C 298.433594 236.617188 300.929688 236.007812 302.796875 235.800781 C 304.519531 235.609375 306.226562 235.542969 307.9375 235.417969 C 310.929688 235.203125 313.90625 234.8125 316.859375 234.265625 C 328.851562 232.035156 341.429688 229 351.683594 221.902344 C 358.195312 217.382812 366.03125 210.78125 371.195312 204.769531 C 376.953125 198.058594 381.277344 190.289062 384.40625 182.011719 C 385.972656 177.871094 387.207031 173.636719 388.203125 169.320312 C 389.199219 165.003906 389.960938 160.597656 390.445312 156.238281 C 391.097656 150.40625 391.121094 145.039062 391.824219 139.1875 C 392.550781 133.144531 393.507812 127.710938 395.527344 122.132812 C 397.359375 117.082031 399.808594 111.929688 403.011719 107.414062 C 404.246094 105.671875 406.261719 103.792969 408.253906 101.992188 C 411.367188 99.171875 414.691406 96.542969 417.277344 94.925781 C 417.8125 94.59375 417.996094 93.84375 417.570312 93.378906 C 416.054688 91.691406 413.511719 89.207031 412.148438 87.460938 C 408.476562 82.757812 405.292969 76.683594 400.332031 73.105469 C 394.277344 68.738281 386.082031 66.613281 378.523438 67.363281 C 376.003906 67.613281 373.511719 68.191406 371.25 69.097656 C 368.359375 70.257812 363.191406 73.875 358.632812 77.320312 C 356.257812 79.117188 353.667969 81.023438 352.519531 82.160156 C 343.746094 90.84375 339.839844 95.570312 332.710938 105.6875 C 332.402344 106.121094 335.214844 108.347656 335.617188 108.695312 C 338.824219 111.492188 350.796875 123.796875 353.617188 138.175781 C 353.757812 138.878906 352.8125 139.277344 352.457031 138.65625 C 349.121094 132.832031 340.066406 120.527344 319.035156 108.675781 C 301.96875 99.058594 289.453125 92.363281 272.132812 82.941406 C 260.074219 76.390625 239.472656 65.074219 239.472656 65.074219 C 239.472656 65.078125 146.210938 14.144531 139.65625 11.085938 Z M 385.292969 82.195312 C 389.042969 82.199219 392.078125 85.242188 392.074219 88.988281 C 392.074219 89.589844 391.542969 89.980469 391.394531 90.539062 C 390.621094 93.4375 388.421875 95.765625 385.277344 95.765625 C 381.53125 95.761719 378.496094 92.71875 378.496094 88.972656 C 378.5 87.371094 379.21875 86.066406 380.152344 84.90625 C 381.398438 83.355469 383.148438 82.195312 385.292969 82.195312 Z M 385.292969 82.195312 " fill-opacity="1" fill-rule="nonzero"/><path fill="#ffffff" d="M 272.753906 435.25 C 222.421875 422.109375 179.480469 390.515625 151.597656 348.179688 C 143.050781 344.613281 135.332031 339.554688 128.6875 333.332031 C 158.082031 391.394531 212.464844 434.773438 277.640625 449.179688 C 275.5 444.792969 273.828125 440.132812 272.753906 435.25 " fill-opacity="1" fill-rule="nonzero"/><path fill="#ffffff" d="M 328.363281 344.234375 L 328.347656 364.609375 C 328.34375 367.179688 326.261719 369.257812 323.6875 369.253906 C 321.109375 369.25 319.035156 367.171875 319.035156 364.597656 L 319.054688 344.222656 Z M 328.363281 344.234375 " fill-opacity="1" fill-rule="nonzero"/><path fill="#ffffff" d="M 378.132812 344.210938 L 378.078125 401.722656 C 378.074219 404.296875 375.992188 406.371094 373.417969 406.367188 C 370.839844 406.363281 368.765625 404.285156 368.769531 401.710938 L 368.824219 344.199219 Z M 378.132812 344.210938 " fill-opacity="1" fill-rule="nonzero"/><path fill="#ffffff" d="M 427.316406 344.230469 L 427.28125 384.128906 C 427.277344 386.703125 425.195312 388.78125 422.617188 388.777344 C 420.042969 388.773438 417.964844 386.691406 417.96875 384.121094 L 418.007812 344.222656 Z M 427.316406 344.230469 " fill-opacity="1" fill-rule="nonzero"/><path fill="#ffffff" d="M 466.144531 343.425781 L 456.5 363.011719 C 455.691406 364.65625 454.046875 365.617188 452.339844 365.613281 C 451.625 365.613281 450.945312 365.457031 450.292969 365.148438 C 447.96875 363.996094 447.039062 361.203125 448.160156 358.910156 L 455.371094 344.21875 L 459.628906 344.210938 L 460.210938 344.207031 C 462.195312 344.023438 464.1875 343.796875 466.144531 343.425781 " fill-opacity="1" fill-rule="nonzero"/><path fill="#ffffff" d="M 289.203125 344.226562 L 289.136719 410.769531 C 289.132812 413.3125 287.050781 415.417969 284.476562 415.414062 C 281.898438 415.410156 279.824219 413.300781 279.828125 410.757812 L 279.894531 344.21875 Z M 289.203125 344.226562 " fill-opacity="1" fill-rule="nonzero"/><path fill="#ffffff" d="M 497.230469 371.355469 C 497.3125 371.253906 497.394531 371.148438 497.480469 371.046875 C 499.328125 368.71875 501.152344 366.371094 502.914062 363.96875 C 502.882812 363.96875 502.851562 363.96875 502.820312 363.96875 C 510.21875 353.871094 516.816406 343.148438 522.429688 331.847656 C 515.589844 338.425781 507.609375 343.855469 498.984375 347.804688 C 487.457031 365.386719 473.335938 381.125 457.171875 394.464844 C 457.160156 394.472656 457.148438 394.484375 457.136719 394.492188 C 452.589844 398.246094 447.875 401.804688 443.011719 405.164062 C 442.890625 405.25 442.777344 405.335938 442.652344 405.417969 C 440.253906 407.070312 437.824219 408.675781 435.351562 410.222656 C 435.277344 410.273438 435.195312 410.320312 435.121094 410.371094 C 432.71875 411.875 430.28125 413.328125 427.820312 414.734375 C 427.679688 414.8125 427.535156 414.902344 427.390625 414.980469 C 424.960938 416.363281 422.496094 417.6875 420.003906 418.972656 C 419.648438 419.15625 419.292969 419.335938 418.933594 419.519531 C 416.488281 420.761719 414.023438 421.964844 411.523438 423.113281 C 411.472656 423.140625 411.421875 423.160156 411.375 423.183594 C 408.90625 424.316406 406.402344 425.386719 403.878906 426.421875 C 403.332031 426.648438 402.78125 426.871094 402.226562 427.09375 C 399.757812 428.082031 397.269531 429.039062 394.757812 429.9375 C 394.410156 430.0625 394.054688 430.175781 393.703125 430.296875 C 391.5 431.070312 389.277344 431.800781 387.039062 432.5 C 367.425781 438.632812 346.578125 441.945312 324.964844 441.921875 C 307.019531 441.902344 289.609375 439.574219 272.996094 435.261719 C 272.996094 435.257812 272.992188 435.253906 272.992188 435.25 C 222.65625 422.109375 179.71875 390.515625 151.835938 348.179688 C 143.289062 344.609375 135.570312 339.554688 128.925781 333.332031 C 137.800781 350.867188 148.996094 367.035156 162.039062 381.496094 C 161.9375 381.488281 161.835938 381.484375 161.734375 381.476562 C 202 426.101562 260.226562 454.242188 324.949219 454.3125 C 344.601562 454.335938 363.65625 451.746094 381.800781 446.910156 C 381.792969 446.925781 381.789062 446.941406 381.78125 446.957031 C 382.199219 446.847656 382.601562 446.710938 383.019531 446.59375 C 386.023438 445.777344 389.003906 444.894531 391.960938 443.949219 C 392.847656 443.664062 393.738281 443.371094 394.621094 443.078125 C 397.617188 442.082031 400.589844 441.023438 403.527344 439.902344 C 404.285156 439.617188 405.035156 439.308594 405.785156 439.011719 C 408.832031 437.8125 411.855469 436.5625 414.832031 435.230469 C 415.347656 435 415.855469 434.75 416.375 434.511719 C 419.265625 433.191406 422.125 431.8125 424.945312 430.375 C 425.355469 430.160156 425.769531 429.96875 426.175781 429.757812 C 429.175781 428.199219 432.125 426.558594 435.046875 424.871094 C 435.59375 424.554688 436.148438 424.246094 436.691406 423.925781 C 439.539062 422.246094 442.339844 420.492188 445.101562 418.691406 C 445.660156 418.328125 446.21875 417.964844 446.773438 417.597656 C 449.535156 415.757812 452.246094 413.863281 454.917969 411.910156 C 455.402344 411.554688 455.886719 411.195312 456.371094 410.835938 C 459.097656 408.808594 461.777344 406.726562 464.402344 404.574219 C 464.742188 404.300781 465.070312 404.015625 465.40625 403.734375 C 468.167969 401.453125 470.882812 399.109375 473.527344 396.695312 C 473.578125 396.648438 473.625 396.601562 473.675781 396.558594 C 479.289062 391.417969 484.636719 385.988281 489.691406 380.296875 C 489.789062 380.1875 489.886719 380.085938 489.984375 379.976562 C 492.472656 377.164062 494.882812 374.289062 497.230469 371.355469 " fill-opacity="1" fill-rule="nonzero"/><path fill="#ffffff" d="M 259.820312 344.238281 L 250.511719 344.226562 L 250.503906 349.472656 C 250.503906 349.515625 250.492188 349.5625 250.488281 349.609375 L 250.457031 380.332031 C 250.453125 382.75 252.535156 384.71875 255.105469 384.722656 C 257.675781 384.726562 259.761719 382.761719 259.765625 380.339844 L 259.796875 350.996094 L 259.8125 350.996094 Z M 259.820312 344.238281 " fill-opacity="1" fill-rule="nonzero"/><path fill="#ffffff" d="M 456.371094 257.195312 C 452.601562 257.191406 449.578125 260.304688 449.574219 264.066406 C 449.570312 267.832031 452.589844 270.851562 456.355469 270.859375 C 460.121094 270.863281 463.242188 267.847656 463.246094 264.082031 C 463.253906 260.320312 460.136719 257.199219 456.371094 257.195312 Z M 456.371094 257.195312 " fill-opacity="1" fill-rule="nonzero"/><path fill="#ffffff" d="M 324.40625 72.339844 C 309.921875 72.324219 296.1875 75.097656 283.09375 79.273438 C 285.269531 80.351562 287.414062 81.484375 289.585938 82.574219 C 296.8125 86.210938 304.066406 89.824219 311.195312 93.648438 C 315.6875 96.054688 320.523438 98.382812 324.667969 101.414062 C 325.105469 101.734375 325.707031 101.660156 326.027344 101.222656 C 326.699219 100.289062 327.691406 98.914062 327.773438 98.800781 C 332.652344 92.253906 337.953125 85.921875 343.695312 80.117188 C 345.53125 78.261719 347.652344 76.574219 349.617188 74.792969 C 341.433594 73.246094 333.039062 72.351562 324.40625 72.339844 Z M 324.40625 72.339844 " fill-opacity="1" fill-rule="nonzero"/><path fill="#ffffff" d="M 358.632812 77.320312 C 356.257812 79.117188 353.667969 81.023438 352.519531 82.160156 C 343.746094 90.84375 339.839844 95.570312 332.710938 105.6875 C 332.402344 106.121094 335.214844 108.347656 335.617188 108.695312 C 338.824219 111.492188 350.796875 123.796875 353.617188 138.175781 C 353.757812 138.878906 352.8125 139.277344 352.457031 138.65625 C 349.121094 132.832031 340.066406 120.527344 319.035156 108.675781 C 301.96875 99.058594 289.453125 92.363281 272.132812 82.941406 C 247.808594 93.054688 227.3125 110.117188 212.539062 131.523438 C 213.019531 132.578125 213.558594 133.65625 214.183594 134.628906 C 217.988281 140.546875 223.972656 144.550781 230.265625 147.4375 C 233.539062 148.9375 236.871094 149.972656 239.957031 151.90625 C 242.734375 153.640625 245.460938 155.621094 247.707031 158.019531 C 249.683594 160.128906 250.730469 162.601562 253.230469 164.226562 C 255.070312 165.425781 257.058594 166.355469 259.140625 167.042969 C 263.566406 168.511719 268.269531 168.992188 272.808594 169.96875 C 277.375 170.945312 281.757812 172.738281 286.382812 173.472656 C 289.921875 174.03125 293.675781 174.058594 297.242188 173.871094 C 300.375 173.703125 303.460938 173.144531 306.359375 171.941406 C 312.644531 169.332031 318.074219 165.003906 322.46875 159.847656 C 323.507812 158.625 324.253906 159.359375 323.535156 160.914062 C 321.804688 164.644531 319.582031 168.113281 316.832031 171.179688 C 313.3125 175.101562 308.84375 178.214844 303.828125 179.886719 C 300.347656 181.042969 296.699219 181.339844 293.0625 181.617188 C 288.464844 181.972656 283.816406 181.96875 279.292969 180.925781 C 278.160156 180.664062 276.476562 181.117188 275.609375 181.890625 C 273.53125 183.738281 270.246094 185.632812 268.234375 187.40625 C 259.019531 195.5 253.695312 198.789062 241.738281 206.371094 C 238.117188 208.667969 234.257812 210.625 230.289062 212.269531 C 223.566406 215.066406 217.425781 217.558594 210.308594 218.449219 C 203.515625 219.296875 197.148438 220.460938 190.328125 221.042969 C 187.792969 221.257812 184.046875 221.4375 181.503906 221.613281 C 177.644531 221.890625 173.976562 221.730469 170.160156 222.472656 C 167.519531 222.988281 164.789062 224.667969 162.589844 226.246094 C 160.730469 227.582031 157.925781 230.390625 158.609375 232.925781 C 158.796875 233.628906 159.222656 234.328125 159.574219 234.960938 C 161.980469 239.320312 163.621094 244.222656 163.824219 249.214844 C 163.914062 251.34375 163.640625 253.519531 164.207031 255.609375 C 165.304688 259.652344 168.007812 262.820312 171.664062 264.824219 C 173.21875 265.679688 174.867188 266.425781 176.605469 266.769531 C 178.800781 267.191406 180.804688 267.925781 182.519531 269.390625 C 184.074219 270.726562 185.265625 272.414062 186.488281 274.046875 C 188.082031 276.175781 189.445312 278.429688 190.359375 280.929688 C 191.566406 284.246094 192.402344 287.730469 194.90625 290.335938 C 194.957031 290.390625 194.953125 290.382812 195.003906 290.433594 C 197.460938 292.90625 200.886719 294.136719 204.308594 294.417969 C 207.769531 294.613281 211.132812 294.039062 214.585938 293.945312 C 216.742188 293.863281 218.972656 294.1875 221.082031 294.628906 C 223.492188 295.132812 225.707031 296.160156 227.675781 297.640625 C 230.484375 299.753906 233.613281 301.34375 237.171875 301.527344 C 240.875 301.71875 244.652344 300.945312 248.132812 299.699219 C 250.449219 298.871094 252.554688 297.597656 254.4375 296.023438 C 259.726562 291.589844 265.746094 286.734375 269.679688 281.117188 C 274.792969 273.8125 278.6875 267.410156 283.179688 259.714844 C 285.570312 255.625 286.972656 252.800781 289.300781 248.675781 C 290.574219 246.429688 291.847656 244.148438 293.09375 241.894531 C 294.140625 240 294.851562 238.617188 296.78125 237.539062 C 298.433594 236.617188 300.929688 236.007812 302.796875 235.800781 C 304.519531 235.609375 306.226562 235.542969 307.9375 235.417969 C 310.929688 235.203125 313.90625 234.8125 316.859375 234.265625 C 328.851562 232.035156 341.429688 229 351.683594 221.902344 C 358.195312 217.382812 366.03125 210.78125 371.195312 204.769531 C 376.953125 198.058594 381.277344 190.289062 384.40625 182.011719 C 385.972656 177.871094 387.207031 173.636719 388.203125 169.320312 C 389.199219 165.003906 389.960938 160.597656 390.445312 156.238281 C 391.097656 150.40625 391.121094 145.039062 391.824219 139.1875 C 392.550781 133.144531 393.507812 127.710938 395.527344 122.132812 C 397.359375 117.082031 399.808594 111.925781 403.011719 107.414062 C 404.246094 105.671875 406.261719 103.792969 408.253906 101.992188 C 402.917969 97.777344 397.335938 93.925781 391.394531 90.539062 C 390.621094 93.4375 388.421875 95.765625 385.277344 95.765625 C 381.53125 95.761719 378.496094 92.71875 378.496094 88.972656 C 378.5 87.371094 379.21875 86.066406 380.152344 84.90625 C 373.261719 81.78125 366.078125 79.273438 358.632812 77.320312 Z M 358.632812 77.320312 " fill-opacity="1" fill-rule="nonzero"/><path fill="#ffffff" d="M 413.777344 106.164062 C 411.679688 107.878906 409.867188 110.15625 408.433594 112.359375 C 405.664062 116.621094 403.613281 121.367188 402.117188 126.210938 C 401.328125 128.765625 400.804688 131.425781 400.363281 134.058594 C 398.023438 148.183594 399.054688 162.710938 394.691406 176.5 C 393.304688 180.875 391.65625 185.117188 389.730469 189.285156 C 385.972656 197.429688 381.1875 205.179688 375.160156 211.847656 C 368.910156 218.769531 360.550781 225.070312 352.355469 229.460938 C 344.109375 233.875 338.070312 236.441406 329.070312 238.835938 C 320.777344 241.035156 310.804688 242.746094 302.109375 244.425781 C 300.582031 244.71875 299.308594 245.742188 298.613281 247.136719 C 293.347656 257.71875 269.589844 303.367188 249.480469 308.132812 C 233.507812 311.929688 225.210938 307.1875 221.65625 304.03125 C 220.140625 302.675781 218.085938 302.253906 216.128906 302.765625 C 210.167969 304.269531 198.199219 305.792969 187.917969 296.820312 C 187.917969 296.820312 181.121094 291.304688 180.46875 282.082031 C 180.316406 279.976562 178.828125 278.171875 176.789062 277.621094 C 173.40625 276.722656 170.148438 275.320312 167.191406 273.445312 C 163.367188 271.011719 160.164062 267.773438 157.894531 263.839844 C 155.152344 259.085938 152.644531 251.851562 154.714844 246.488281 C 155.328125 244.898438 155.65625 243.324219 154.332031 241.933594 C 151.011719 238.441406 143.894531 228.984375 153.09375 221.972656 C 156.179688 219.617188 159.542969 217.566406 163.085938 215.972656 C 167.960938 213.78125 172.871094 212.929688 178.21875 213.082031 C 179.417969 213.117188 180.605469 213.191406 181.804688 213.183594 C 187.195312 213.148438 192.636719 212.804688 198 212.230469 C 205.046875 211.480469 212.09375 210.25 218.851562 208.089844 C 235.789062 202.679688 259.515625 185.226562 266.6875 179.746094 C 267.386719 179.214844 267.070312 178.148438 266.207031 178.003906 C 261.292969 177.183594 256.546875 176.609375 251.957031 174.304688 C 247.351562 171.996094 243.246094 168.636719 240.039062 164.601562 C 237.375 161.25 234.871094 158.320312 231.03125 156.257812 C 227.625 154.429688 223.933594 153.265625 220.46875 151.691406 C 215.207031 149.296875 210.285156 145.785156 207.195312 140.820312 C 207.097656 140.667969 207 140.496094 206.902344 140.335938 C 197.621094 156.285156 191.132812 174.011719 189.003906 193.230469 C 149.882812 196.101562 119.050781 228.707031 119.003906 268.542969 C 118.957031 310.304688 152.769531 344.171875 194.554688 344.214844 L 250.507812 344.277344 L 250.507812 344.183594 L 259.816406 344.191406 L 259.816406 344.289062 L 279.886719 344.3125 L 279.886719 344.214844 L 279.921875 313.691406 C 279.925781 311.117188 282.007812 309.039062 284.582031 309.042969 C 287.15625 309.046875 289.234375 311.125 289.230469 313.699219 L 289.199219 344.226562 L 289.199219 344.324219 L 319.0625 344.355469 L 319.0625 344.257812 L 319.109375 303.75 C 319.113281 301.207031 321.191406 299.101562 323.769531 299.105469 L 353.730469 299.140625 L 353.761719 271.714844 C 348.457031 269.816406 344.75 264.738281 344.757812 258.8125 C 344.765625 251.246094 350.875 245.15625 358.445312 245.164062 C 366.015625 245.171875 372.207031 251.277344 372.199219 258.84375 C 372.191406 264.765625 368.347656 269.835938 363.070312 271.722656 L 363.035156 303.800781 C 363.035156 305.085938 362.519531 306.253906 361.675781 307.09375 C 360.828125 307.933594 359.648438 308.449219 358.375 308.445312 L 328.414062 308.414062 L 328.371094 344.269531 L 328.371094 344.367188 L 368.808594 344.410156 L 368.808594 344.214844 L 368.832031 322.507812 C 368.832031 321.269531 369.324219 320.082031 370.195312 319.214844 L 412.808594 276.722656 L 412.863281 229.238281 C 407.65625 227.28125 403.949219 222.3125 403.957031 216.433594 C 403.964844 208.871094 410.074219 202.777344 417.644531 202.785156 C 425.210938 202.796875 431.402344 208.902344 431.398438 216.464844 C 431.390625 222.414062 427.484375 227.453125 422.171875 229.34375 L 422.117188 278.667969 C 422.113281 279.910156 421.625 281.0625 420.757812 281.960938 L 378.140625 324.457031 L 378.117188 344.226562 L 378.117188 344.421875 L 417.96875 344.464844 L 417.972656 344.175781 L 418.007812 311.324219 C 418.011719 308.75 420.121094 306.675781 422.667969 306.675781 C 425.242188 306.679688 427.320312 308.757812 427.316406 311.332031 L 427.28125 344.183594 L 427.28125 344.476562 L 455.304688 344.507812 L 455.402344 344.214844 L 472.894531 308.574219 L 457.414062 277.644531 L 457.414062 277.546875 C 457.046875 277.574219 456.722656 277.738281 456.347656 277.738281 C 448.78125 277.730469 442.683594 271.621094 442.691406 264.058594 C 442.699219 256.496094 448.808594 250.304688 456.378906 250.3125 C 463.945312 250.324219 470.136719 256.527344 470.132812 264.089844 C 470.128906 267.921875 468.496094 271.382812 465.953125 273.875 L 482.207031 306.550781 C 482.824219 307.851562 482.855469 309.316406 482.203125 310.617188 L 466.359375 343.066406 C 501.640625 336.871094 528.554688 306.429688 528.597656 269.386719 C 528.640625 229.9375 498.296875 197.601562 459.640625 194.402344 C 456.046875 159.273438 438.960938 128.210938 413.777344 106.164062 Z M 413.777344 106.164062 " fill-opacity="1" fill-rule="nonzero"/><path fill="#ffffff" d="M 358.4375 252.046875 C 354.652344 252.042969 351.648438 255.070312 351.640625 258.824219 C 351.640625 262.574219 354.636719 265.707031 358.421875 265.710938 C 362.179688 265.714844 365.3125 262.589844 365.316406 258.835938 C 365.320312 255.085938 362.191406 252.050781 358.4375 252.046875 Z M 358.4375 252.046875 " fill-opacity="1" fill-rule="nonzero"/><path fill="#ffffff" d="M 417.636719 209.664062 C 413.867188 209.664062 410.84375 212.679688 410.839844 216.441406 C 410.835938 220.207031 413.855469 223.324219 417.621094 223.332031 C 421.386719 223.335938 424.507812 220.222656 424.511719 216.457031 C 424.519531 212.695312 421.402344 209.671875 417.636719 209.664062 Z M 417.636719 209.664062 " fill-opacity="1" fill-rule="nonzero"/></svg>